<svg width="50" height="50" viewBox="0 0 50 50" fill="none" xmlns="http://www.w3.org/2000/svg">
<rect width="50" height="50" fill="#5BACE4"/>
<path d="M17.7713 32H14.4759L19.4972 17.4545H23.4602L28.4744 32H25.179L21.5355 20.7784H21.4219L17.7713 32ZM17.5653 26.2827H25.3494V28.6832H17.5653V26.2827ZM30.2269 32V21.0909H33.2525V32H30.2269ZM31.7468 19.6847C31.297 19.6847 30.9111 19.5355 30.5891 19.2372C30.2719 18.9342 30.1133 18.572 30.1133 18.1506C30.1133 17.7339 30.2719 17.3764 30.5891 17.0781C30.9111 16.7751 31.297 16.6236 31.7468 16.6236C32.1966 16.6236 32.5801 16.7751 32.8974 17.0781C33.2193 17.3764 33.3803 17.7339 33.3803 18.1506C33.3803 18.572 33.2193 18.9342 32.8974 19.2372C32.5801 19.5355 32.1966 19.6847 31.7468 19.6847Z" fill="white"/>
</svg>
