<svg width="16" height="30" viewBox="0 0 16 30" fill="none" xmlns="http://www.w3.org/2000/svg">
<path d="M9 1C9 0.447715 8.55228 -2.41412e-08 8 0C7.44772 2.41412e-08 7 0.447715 7 1L9 1ZM7.29289 29.7071C7.68342 30.0976 8.31658 30.0976 8.70711 29.7071L15.0711 23.3431C15.4616 22.9526 15.4616 22.3195 15.0711 21.9289C14.6805 21.5384 14.0474 21.5384 13.6569 21.9289L8 27.5858L2.34315 21.9289C1.95262 21.5384 1.31946 21.5384 0.928933 21.9289C0.538409 22.3195 0.538409 22.9526 0.928933 23.3431L7.29289 29.7071ZM7 1L7 29L9 29L9 1L7 1Z" fill="white"/>
</svg>
