<svg width="414" height="86" viewBox="0 0 414 86" fill="none" xmlns="http://www.w3.org/2000/svg">
<g filter="url(#filter0_d_116_861)">
<rect x="227" y="10.126" width="167" height="55.1262" fill="white" fill-opacity="0.8" shape-rendering="crispEdges"/>
<rect x="227.5" y="10.626" width="166" height="54.1262" stroke="#0172C0" shape-rendering="crispEdges"/>
</g>
<path d="M259 43.126H255.409V31.4896H259.159C260.288 31.4896 261.254 31.7226 262.057 32.1885C262.86 32.6506 263.475 33.3154 263.903 34.1828C264.331 35.0464 264.545 36.0805 264.545 37.2851C264.545 38.4972 264.33 39.5407 263.898 40.4157C263.466 41.287 262.837 41.9574 262.011 42.4271C261.186 42.893 260.182 43.126 259 43.126ZM256.818 41.876H258.909C259.871 41.876 260.669 41.6904 261.301 41.3192C261.934 40.9479 262.405 40.4195 262.716 39.7339C263.027 39.0483 263.182 38.232 263.182 37.2851C263.182 36.3457 263.028 35.537 262.722 34.8589C262.415 34.1771 261.956 33.6544 261.347 33.2907C260.737 32.9233 259.977 32.7396 259.068 32.7396H256.818V41.876ZM266.909 43.126V31.4896H273.932V32.7396H268.318V36.6714H273.568V37.9214H268.318V41.876H274.023V43.126H266.909ZM282.835 34.3987C282.767 33.8229 282.491 33.376 282.006 33.0578C281.521 32.7396 280.926 32.5805 280.222 32.5805C279.706 32.5805 279.256 32.6639 278.869 32.8305C278.487 32.9972 278.188 33.2264 277.972 33.518C277.759 33.8097 277.653 34.1411 277.653 34.5123C277.653 34.8229 277.727 35.09 277.875 35.3135C278.027 35.5332 278.22 35.7169 278.455 35.8646C278.689 36.0086 278.936 36.1279 279.193 36.2226C279.451 36.3135 279.688 36.3873 279.903 36.4442L281.085 36.7623C281.388 36.8419 281.725 36.9517 282.097 37.0919C282.472 37.232 282.83 37.4233 283.17 37.6657C283.515 37.9044 283.799 38.2112 284.023 38.5862C284.246 38.9612 284.358 39.4214 284.358 39.9669C284.358 40.5957 284.193 41.1639 283.864 41.6714C283.538 42.179 283.061 42.5824 282.432 42.8817C281.807 43.1809 281.047 43.3305 280.153 43.3305C279.32 43.3305 278.598 43.1961 277.989 42.9271C277.383 42.6582 276.905 42.2832 276.557 41.8021C276.212 41.3211 276.017 40.7623 275.972 40.126H277.426C277.464 40.5654 277.612 40.929 277.869 41.2169C278.131 41.501 278.46 41.7131 278.858 41.8532C279.259 41.9896 279.691 42.0578 280.153 42.0578C280.691 42.0578 281.174 41.9707 281.602 41.7964C282.03 41.6184 282.369 41.3722 282.619 41.0578C282.869 40.7396 282.994 40.3684 282.994 39.9442C282.994 39.5578 282.886 39.2434 282.67 39.001C282.455 38.7586 282.17 38.5616 281.818 38.4101C281.466 38.2586 281.085 38.126 280.676 38.0123L279.244 37.6032C278.335 37.3419 277.616 36.9688 277.085 36.4839C276.555 35.9991 276.29 35.3646 276.29 34.5805C276.29 33.929 276.466 33.3608 276.818 32.876C277.174 32.3873 277.652 32.0086 278.25 31.7396C278.852 31.4669 279.525 31.3305 280.267 31.3305C281.017 31.3305 281.684 31.465 282.267 31.7339C282.85 31.9991 283.313 32.3627 283.653 32.8248C283.998 33.287 284.18 33.8116 284.199 34.3987H282.835ZM288.084 31.4896V43.126H286.675V31.4896H288.084ZM298.864 35.126C298.739 34.7434 298.574 34.4006 298.369 34.0976C298.169 33.7907 297.928 33.5294 297.648 33.3135C297.371 33.0976 297.057 32.9328 296.705 32.8192C296.352 32.7055 295.966 32.6487 295.545 32.6487C294.856 32.6487 294.229 32.8267 293.665 33.1828C293.1 33.5389 292.652 34.0635 292.318 34.7567C291.985 35.4498 291.818 36.3002 291.818 37.3078C291.818 38.3154 291.987 39.1657 292.324 39.8589C292.661 40.5521 293.117 41.0767 293.693 41.4328C294.269 41.7889 294.917 41.9669 295.636 41.9669C296.303 41.9669 296.89 41.8248 297.398 41.5407C297.909 41.2529 298.307 40.8476 298.591 40.3248C298.879 39.7983 299.023 39.179 299.023 38.4669L299.455 38.5578H295.955V37.3078H300.386V38.5578C300.386 39.5161 300.182 40.3495 299.773 41.0578C299.367 41.7661 298.807 42.3154 298.091 42.7055C297.379 43.0919 296.561 43.2851 295.636 43.2851C294.606 43.2851 293.701 43.0426 292.92 42.5578C292.144 42.0729 291.538 41.3836 291.102 40.4896C290.67 39.5957 290.455 38.5351 290.455 37.3078C290.455 36.3873 290.578 35.5597 290.824 34.8248C291.074 34.0862 291.426 33.4574 291.881 32.9385C292.335 32.4195 292.873 32.0218 293.494 31.7453C294.116 31.4688 294.799 31.3305 295.545 31.3305C296.159 31.3305 296.731 31.4233 297.261 31.6089C297.795 31.7907 298.271 32.0502 298.688 32.3873C299.108 32.7207 299.458 33.1203 299.739 33.5862C300.019 34.0483 300.212 34.5616 300.318 35.126H298.864ZM312.027 31.4896V43.126H310.663L304.322 33.9896H304.209V43.126H302.8V31.4896H304.163L310.527 40.6487H310.641V31.4896H312.027ZM327.301 35.126C327.176 34.7434 327.011 34.4006 326.807 34.0976C326.606 33.7907 326.366 33.5294 326.085 33.3135C325.809 33.0976 325.494 32.9328 325.142 32.8192C324.79 32.7055 324.403 32.6487 323.983 32.6487C323.294 32.6487 322.667 32.8267 322.102 33.1828C321.538 33.5389 321.089 34.0635 320.756 34.7567C320.422 35.4498 320.256 36.3002 320.256 37.3078C320.256 38.3154 320.424 39.1657 320.761 39.8589C321.098 40.5521 321.555 41.0767 322.131 41.4328C322.706 41.7889 323.354 41.9669 324.074 41.9669C324.741 41.9669 325.328 41.8248 325.835 41.5407C326.347 41.2529 326.744 40.8476 327.028 40.3248C327.316 39.7983 327.46 39.179 327.46 38.4669L327.892 38.5578H324.392V37.3078H328.824V38.5578C328.824 39.5161 328.619 40.3495 328.21 41.0578C327.805 41.7661 327.244 42.3154 326.528 42.7055C325.816 43.0919 324.998 43.2851 324.074 43.2851C323.044 43.2851 322.138 43.0426 321.358 42.5578C320.581 42.0729 319.975 41.3836 319.54 40.4896C319.108 39.5957 318.892 38.5351 318.892 37.3078C318.892 36.3873 319.015 35.5597 319.261 34.8248C319.511 34.0862 319.864 33.4574 320.318 32.9385C320.773 32.4195 321.311 32.0218 321.932 31.7453C322.553 31.4688 323.237 31.3305 323.983 31.3305C324.597 31.3305 325.169 31.4233 325.699 31.6089C326.233 31.7907 326.708 32.0502 327.125 32.3873C327.545 32.7207 327.896 33.1203 328.176 33.5862C328.456 34.0483 328.65 34.5616 328.756 35.126H327.301ZM338.874 31.4896H340.283V39.1942C340.283 39.9896 340.095 40.6998 339.72 41.3248C339.349 41.9461 338.824 42.4366 338.146 42.7964C337.468 43.1525 336.673 43.3305 335.76 43.3305C334.847 43.3305 334.052 43.1525 333.374 42.7964C332.696 42.4366 332.169 41.9461 331.794 41.3248C331.423 40.6998 331.237 39.9896 331.237 39.1942V31.4896H332.646V39.0805C332.646 39.6487 332.771 40.1544 333.021 40.5976C333.271 41.037 333.627 41.3836 334.089 41.6373C334.555 41.8873 335.112 42.0123 335.76 42.0123C336.408 42.0123 336.964 41.8873 337.43 41.6373C337.896 41.3836 338.252 41.037 338.499 40.5976C338.749 40.1544 338.874 39.6487 338.874 39.0805V31.4896ZM344.506 31.4896V43.126H343.097V31.4896H344.506ZM350.922 43.126H347.331V31.4896H351.081C352.21 31.4896 353.176 31.7226 353.979 32.1885C354.782 32.6506 355.397 33.3154 355.825 34.1828C356.253 35.0464 356.467 36.0805 356.467 37.2851C356.467 38.4972 356.251 39.5407 355.82 40.4157C355.388 41.287 354.759 41.9574 353.933 42.4271C353.107 42.893 352.104 43.126 350.922 43.126ZM348.74 41.876H350.831C351.793 41.876 352.59 41.6904 353.223 41.3192C353.856 40.9479 354.327 40.4195 354.638 39.7339C354.948 39.0483 355.104 38.232 355.104 37.2851C355.104 36.3457 354.95 35.537 354.643 34.8589C354.337 34.1771 353.878 33.6544 353.268 33.2907C352.659 32.9233 351.899 32.7396 350.99 32.7396H348.74V41.876ZM358.831 43.126V31.4896H365.854V32.7396H360.24V36.6714H365.49V37.9214H360.24V41.876H365.945V43.126H358.831Z" fill="#0172C0"/>
<g filter="url(#filter1_d_116_861)">
<rect x="10" y="10" width="167" height="55.1262" fill="white" fill-opacity="0.8" shape-rendering="crispEdges"/>
<rect x="10.5" y="10.5" width="166" height="54.1262" stroke="#0172C0" shape-rendering="crispEdges"/>
</g>
<path d="M38.8864 31.4896L42.3409 41.2851H42.4773L45.9318 31.4896H47.4091L43.1364 43.126H41.6818L37.4091 31.4896H38.8864ZM50.6307 31.4896V43.126H49.2216V31.4896H50.6307ZM53.456 43.126V31.4896H60.4787V32.7396H54.8651V36.6714H60.1151V37.9214H54.8651V41.876H60.5696V43.126H53.456ZM65.1321 43.126L61.9503 31.4896H63.3821L65.8139 40.9669H65.9276L68.4048 31.4896H69.9957L72.473 40.9669H72.5866L75.0185 31.4896H76.4503L73.2685 43.126H71.8139L69.2457 33.8532H69.1548L66.5866 43.126H65.1321ZM92.5241 37.3078C92.5241 38.5351 92.3026 39.5957 91.8594 40.4896C91.4162 41.3836 90.8082 42.0729 90.0355 42.5578C89.2628 43.0426 88.3802 43.2851 87.3878 43.2851C86.3954 43.2851 85.5128 43.0426 84.7401 42.5578C83.9673 42.0729 83.3594 41.3836 82.9162 40.4896C82.473 39.5957 82.2514 38.5351 82.2514 37.3078C82.2514 36.0805 82.473 35.0199 82.9162 34.126C83.3594 33.232 83.9673 32.5426 84.7401 32.0578C85.5128 31.5729 86.3954 31.3305 87.3878 31.3305C88.3802 31.3305 89.2628 31.5729 90.0355 32.0578C90.8082 32.5426 91.4162 33.232 91.8594 34.126C92.3026 35.0199 92.5241 36.0805 92.5241 37.3078ZM91.1605 37.3078C91.1605 36.3002 90.992 35.4498 90.6548 34.7567C90.3215 34.0635 89.8688 33.5389 89.2969 33.1828C88.7287 32.8267 88.0923 32.6487 87.3878 32.6487C86.6832 32.6487 86.045 32.8267 85.473 33.1828C84.9048 33.5389 84.4522 34.0635 84.1151 34.7567C83.7817 35.4498 83.6151 36.3002 83.6151 37.3078C83.6151 38.3154 83.7817 39.1657 84.1151 39.8589C84.4522 40.5521 84.9048 41.0767 85.473 41.4328C86.045 41.7889 86.6832 41.9669 87.3878 41.9669C88.0923 41.9669 88.7287 41.7889 89.2969 41.4328C89.8688 41.0767 90.3215 40.5521 90.6548 39.8589C90.992 39.1657 91.1605 38.3154 91.1605 37.3078ZM104.121 31.4896V43.126H102.757L96.4162 33.9896H96.3026V43.126H94.8935V31.4896H96.2571L102.621 40.6487H102.734V31.4896H104.121ZM113.554 43.126L110.372 31.4896H111.804L114.236 40.9669H114.349L116.827 31.4896H118.418L120.895 40.9669H121.009L123.44 31.4896H124.872L121.69 43.126H120.236L117.668 33.8532H117.577L115.009 43.126H113.554ZM126.628 43.126V31.4896H133.651V32.7396H128.037V36.6714H133.287V37.9214H128.037V41.876H133.741V43.126H126.628ZM136.19 43.126V31.4896H140.259C141.069 31.4896 141.738 31.6298 142.264 31.9101C142.791 32.1866 143.183 32.5597 143.44 33.0294C143.698 33.4953 143.827 34.0123 143.827 34.5805C143.827 35.0805 143.738 35.4934 143.56 35.8192C143.385 36.1449 143.154 36.4025 142.866 36.5919C142.582 36.7813 142.274 36.9214 141.94 37.0123V37.126C142.296 37.1487 142.654 37.2737 143.014 37.501C143.374 37.7282 143.675 38.054 143.918 38.4782C144.16 38.9025 144.281 39.4214 144.281 40.0351C144.281 40.6184 144.149 41.143 143.884 41.6089C143.618 42.0748 143.2 42.4442 142.628 42.7169C142.056 42.9896 141.312 43.126 140.395 43.126H136.19ZM137.599 41.876H140.395C141.315 41.876 141.969 41.6979 142.355 41.3419C142.745 40.982 142.94 40.5464 142.94 40.0351C142.94 39.6411 142.84 39.2775 142.639 38.9442C142.438 38.607 142.152 38.3381 141.781 38.1373C141.41 37.9328 140.971 37.8305 140.463 37.8305H137.599V41.876ZM137.599 36.6032H140.213C140.637 36.6032 141.02 36.5199 141.361 36.3532C141.705 36.1866 141.978 35.9517 142.179 35.6487C142.384 35.3457 142.486 34.9896 142.486 34.5805C142.486 34.0692 142.308 33.6354 141.952 33.2794C141.596 32.9195 141.031 32.7396 140.259 32.7396H137.599V36.6032Z" fill="#0172C0"/>
<defs>
<filter id="filter0_d_116_861" x="217" y="0.125977" width="197" height="85.126" filterUnits="userSpaceOnUse" color-interpolation-filters="sRGB">
<feFlood flood-opacity="0" result="BackgroundImageFix"/>
<feColorMatrix in="SourceAlpha" type="matrix" values="0 0 0 0 0 0 0 0 0 0 0 0 0 0 0 0 0 0 127 0" result="hardAlpha"/>
<feOffset dx="5" dy="5"/>
<feGaussianBlur stdDeviation="7.5"/>
<feComposite in2="hardAlpha" operator="out"/>
<feColorMatrix type="matrix" values="0 0 0 0 0 0 0 0 0 0 0 0 0 0 0 0 0 0 0.1 0"/>
<feBlend mode="normal" in2="BackgroundImageFix" result="effect1_dropShadow_116_861"/>
<feBlend mode="normal" in="SourceGraphic" in2="effect1_dropShadow_116_861" result="shape"/>
</filter>
<filter id="filter1_d_116_861" x="0" y="0" width="197" height="85.126" filterUnits="userSpaceOnUse" color-interpolation-filters="sRGB">
<feFlood flood-opacity="0" result="BackgroundImageFix"/>
<feColorMatrix in="SourceAlpha" type="matrix" values="0 0 0 0 0 0 0 0 0 0 0 0 0 0 0 0 0 0 127 0" result="hardAlpha"/>
<feOffset dx="5" dy="5"/>
<feGaussianBlur stdDeviation="7.5"/>
<feComposite in2="hardAlpha" operator="out"/>
<feColorMatrix type="matrix" values="0 0 0 0 0 0 0 0 0 0 0 0 0 0 0 0 0 0 0.1 0"/>
<feBlend mode="normal" in2="BackgroundImageFix" result="effect1_dropShadow_116_861"/>
<feBlend mode="normal" in="SourceGraphic" in2="effect1_dropShadow_116_861" result="shape"/>
</filter>
</defs>
</svg>
