<svg width="50" height="50" viewBox="0 0 50 50" fill="none" xmlns="http://www.w3.org/2000/svg">
<rect width="50" height="50" fill="#5BACE4"/>
<path d="M6.82173 30V20.5455H13.0817V22.1935H8.82067V24.4464H12.6662V26.0945H8.82067V30H6.82173ZM14.3893 30V22.9091H16.3559V30H14.3893ZM15.3772 21.995C15.0848 21.995 14.834 21.8981 14.6247 21.7042C14.4185 21.5072 14.3154 21.2718 14.3154 20.9979C14.3154 20.727 14.4185 20.4947 14.6247 20.3008C14.834 20.1038 15.0848 20.0053 15.3772 20.0053C15.6696 20.0053 15.9189 20.1038 16.1251 20.3008C16.3344 20.4947 16.439 20.727 16.439 20.9979C16.439 21.2718 16.3344 21.5072 16.1251 21.7042C15.9189 21.8981 15.6696 21.995 15.3772 21.995ZM21.1259 32.8068C20.4888 32.8068 19.9425 32.7191 19.487 32.5437C19.0346 32.3713 18.6745 32.1359 18.4068 31.8374C18.139 31.5388 17.9651 31.2034 17.8851 30.831L19.704 30.5863C19.7594 30.7279 19.8471 30.8602 19.9672 30.9833C20.0872 31.1064 20.2457 31.2049 20.4426 31.2788C20.6427 31.3557 20.8858 31.3942 21.1721 31.3942C21.5998 31.3942 21.9522 31.2895 22.2292 31.0803C22.5093 30.8741 22.6493 30.5278 22.6493 30.0415V28.7443H22.5662C22.4801 28.9413 22.3508 29.1275 22.1784 29.3029C22.0061 29.4783 21.7845 29.6214 21.5137 29.7322C21.2428 29.843 20.9197 29.8984 20.5442 29.8984C20.0118 29.8984 19.527 29.7753 19.09 29.5291C18.6561 29.2798 18.3098 28.8997 18.0513 28.3888C17.7959 27.8749 17.6681 27.2255 17.6681 26.4407C17.6681 25.6374 17.7989 24.9665 18.0605 24.4279C18.3221 23.8893 18.6699 23.4862 19.1039 23.2184C19.5409 22.9506 20.0195 22.8168 20.5396 22.8168C20.9366 22.8168 21.269 22.8845 21.5368 23.0199C21.8045 23.1522 22.0199 23.3184 22.1831 23.5185C22.3493 23.7154 22.477 23.9093 22.5662 24.1001H22.6401V22.9091H24.5929V30.0692C24.5929 30.6725 24.4451 31.1772 24.1497 31.5835C23.8542 31.9897 23.4449 32.2944 22.9217 32.4975C22.4016 32.7037 21.803 32.8068 21.1259 32.8068ZM21.1674 28.4212C21.4844 28.4212 21.7522 28.3427 21.9707 28.1857C22.1923 28.0257 22.3616 27.7979 22.4785 27.5025C22.5985 27.204 22.6586 26.8469 22.6586 26.4315C22.6586 26.016 22.6001 25.6559 22.4831 25.3512C22.3662 25.0434 22.1969 24.8049 21.9753 24.6357C21.7537 24.4664 21.4844 24.3817 21.1674 24.3817C20.8443 24.3817 20.5719 24.4695 20.3503 24.6449C20.1287 24.8172 19.961 25.0573 19.8471 25.3651C19.7333 25.6728 19.6763 26.0283 19.6763 26.4315C19.6763 26.8408 19.7333 27.1947 19.8471 27.4933C19.9641 27.7887 20.1318 28.018 20.3503 28.1811C20.5719 28.3411 20.8443 28.4212 21.1674 28.4212ZM26.1578 30V22.9091H28.0321V24.1602H28.1152C28.263 23.7447 28.5092 23.4169 28.8539 23.1768C29.1986 22.9368 29.611 22.8168 30.0911 22.8168C30.5774 22.8168 30.9913 22.9383 31.3329 23.1815C31.6745 23.4215 31.9023 23.7478 32.0162 24.1602H32.09C32.2347 23.7539 32.4963 23.4292 32.8748 23.1861C33.2565 22.9399 33.7073 22.8168 34.2275 22.8168C34.8891 22.8168 35.4262 23.0276 35.8386 23.4492C36.2541 23.8678 36.4618 24.4618 36.4618 25.2312V30H34.4998V25.619C34.4998 25.225 34.3952 24.9296 34.1859 24.7326C33.9766 24.5356 33.715 24.4371 33.4011 24.4371C33.0441 24.4371 32.7656 24.551 32.5655 24.7788C32.3655 25.0034 32.2654 25.3004 32.2654 25.6697V30H30.3588V25.5774C30.3588 25.2296 30.2588 24.9527 30.0588 24.7464C29.8618 24.5402 29.6017 24.4371 29.2786 24.4371C29.0601 24.4371 28.8631 24.4925 28.6877 24.6033C28.5153 24.7111 28.3784 24.8634 28.2768 25.0604C28.1752 25.2543 28.1245 25.482 28.1245 25.7436V30H26.1578ZM40.0373 30.1339C39.5849 30.1339 39.1817 30.0554 38.8278 29.8984C38.4738 29.7384 38.1938 29.503 37.9876 29.1921C37.7844 28.8782 37.6829 28.4873 37.6829 28.0195C37.6829 27.6256 37.7552 27.2947 37.8999 27.027C38.0445 26.7592 38.2415 26.5438 38.4908 26.3807C38.7401 26.2176 39.0232 26.0945 39.3402 26.0114C39.6603 25.9283 39.9957 25.8698 40.3466 25.8359C40.759 25.7929 41.0914 25.7528 41.3438 25.7159C41.5961 25.6759 41.7792 25.6174 41.8931 25.5405C42.007 25.4635 42.0639 25.3497 42.0639 25.1989V25.1712C42.0639 24.8788 41.9716 24.6526 41.7869 24.4925C41.6054 24.3325 41.3468 24.2525 41.0114 24.2525C40.6574 24.2525 40.3758 24.331 40.1665 24.4879C39.9573 24.6418 39.8188 24.8357 39.7511 25.0696L37.9322 24.9219C38.0245 24.491 38.2061 24.1186 38.4769 23.8047C38.7478 23.4877 39.0971 23.2446 39.5249 23.0753C39.9557 22.9029 40.4543 22.8168 41.0206 22.8168C41.4145 22.8168 41.7915 22.8629 42.1516 22.9553C42.5148 23.0476 42.8364 23.1907 43.1165 23.3846C43.3996 23.5785 43.6228 23.8278 43.7859 24.1325C43.949 24.4341 44.0305 24.7957 44.0305 25.2173V30H42.1655V29.0167H42.1101C41.9962 29.2383 41.8439 29.4337 41.6531 29.603C41.4622 29.7692 41.233 29.9 40.9652 29.9954C40.6974 30.0877 40.3881 30.1339 40.0373 30.1339ZM40.6005 28.7766C40.8898 28.7766 41.1452 28.7197 41.3668 28.6058C41.5884 28.4889 41.7623 28.3319 41.8885 28.1349C42.0147 27.938 42.0778 27.7148 42.0778 27.4656V26.7131C42.0162 26.7531 41.9316 26.79 41.8239 26.8239C41.7192 26.8546 41.6007 26.8839 41.4684 26.9116C41.3361 26.9362 41.2037 26.9593 41.0714 26.9808C40.939 26.9993 40.819 27.0162 40.7113 27.0316C40.4805 27.0655 40.2789 27.1193 40.1065 27.1932C39.9342 27.267 39.8003 27.3671 39.7049 27.4933C39.6095 27.6164 39.5618 27.7702 39.5618 27.9549C39.5618 28.2227 39.6587 28.4273 39.8526 28.5689C40.0496 28.7074 40.2989 28.7766 40.6005 28.7766Z" fill="white"/>
</svg>
