<svg width="50" height="50" viewBox="0 0 50 50" fill="none" xmlns="http://www.w3.org/2000/svg">
<rect width="50" height="50" fill="#5BACE4"/>
<path d="M11.5455 23.0938C11.4858 22.8864 11.402 22.7031 11.294 22.544C11.1861 22.3821 11.054 22.2457 10.8977 22.1349C10.7443 22.0213 10.5682 21.9347 10.3693 21.875C10.1733 21.8153 9.95597 21.7855 9.71733 21.7855C9.27131 21.7855 8.87926 21.8963 8.54119 22.1179C8.20597 22.3395 7.9446 22.6619 7.7571 23.0852C7.5696 23.5057 7.47585 24.0199 7.47585 24.6278C7.47585 25.2358 7.56818 25.7528 7.75284 26.179C7.9375 26.6051 8.19886 26.9304 8.53693 27.1548C8.875 27.3764 9.27415 27.4872 9.73438 27.4872C10.152 27.4872 10.5085 27.4134 10.804 27.2656C11.1023 27.1151 11.3295 26.9034 11.4858 26.6307C11.6449 26.358 11.7244 26.0355 11.7244 25.6634L12.0994 25.7188H9.84943V24.3295H13.5014V25.429C13.5014 26.196 13.3395 26.8551 13.0156 27.4062C12.6918 27.9545 12.2457 28.3778 11.6776 28.6761C11.1094 28.9716 10.4588 29.1193 9.72585 29.1193C8.90767 29.1193 8.18892 28.9389 7.5696 28.5781C6.95028 28.2145 6.46733 27.6989 6.12074 27.0312C5.77699 26.3608 5.60511 25.5653 5.60511 24.6449C5.60511 23.9375 5.70739 23.3068 5.91193 22.7528C6.11932 22.196 6.40909 21.7244 6.78125 21.3381C7.15341 20.9517 7.58665 20.6577 8.08097 20.456C8.57528 20.2543 9.1108 20.1534 9.6875 20.1534C10.1818 20.1534 10.642 20.2259 11.0682 20.3707C11.4943 20.5128 11.8722 20.7145 12.2017 20.9759C12.5341 21.2372 12.8054 21.5483 13.0156 21.9091C13.2259 22.267 13.3608 22.6619 13.4205 23.0938H11.5455ZM15.2635 29V22.4545H17.0788V29H15.2635ZM16.1754 21.6108C15.9055 21.6108 15.674 21.5213 15.4808 21.3423C15.2905 21.1605 15.1953 20.9432 15.1953 20.6903C15.1953 20.4403 15.2905 20.2259 15.4808 20.0469C15.674 19.8651 15.9055 19.7741 16.1754 19.7741C16.4453 19.7741 16.6754 19.8651 16.8658 20.0469C17.0589 20.2259 17.1555 20.4403 17.1555 20.6903C17.1555 20.9432 17.0589 21.1605 16.8658 21.3423C16.6754 21.5213 16.4453 21.6108 16.1754 21.6108ZM22.0146 22.4545V23.8182H18.0728V22.4545H22.0146ZM18.9677 20.8864H20.783V26.9886C20.783 27.1562 20.8086 27.2869 20.8597 27.3807C20.9109 27.4716 20.9819 27.5355 21.0728 27.5724C21.1665 27.6094 21.2745 27.6278 21.3967 27.6278C21.4819 27.6278 21.5671 27.6207 21.6523 27.6065C21.7376 27.5895 21.8029 27.5767 21.8484 27.5682L22.1339 28.919C22.043 28.9474 21.9151 28.9801 21.7504 29.017C21.5856 29.0568 21.3853 29.081 21.1495 29.0895C20.712 29.1065 20.3285 29.0483 19.9989 28.9148C19.6722 28.7812 19.418 28.5739 19.2362 28.2926C19.0543 28.0114 18.9648 27.6562 18.9677 27.2273V20.8864ZM23.3718 29V20.2727H25.217V23.8736H28.9627V20.2727H30.8036V29H28.9627V25.3949H25.217V29H23.3718ZM36.4883 26.2131V22.4545H38.3036V29H36.5607V27.8111H36.4925C36.3448 28.1946 36.0991 28.5028 35.7553 28.7358C35.4144 28.9687 34.9982 29.0852 34.5067 29.0852C34.0692 29.0852 33.6843 28.9858 33.3519 28.7869C33.0195 28.5881 32.7596 28.3054 32.5721 27.9389C32.3874 27.5724 32.2937 27.1335 32.2908 26.6222V22.4545H34.1062V26.2983C34.109 26.6847 34.2127 26.9901 34.4173 27.2145C34.6218 27.4389 34.896 27.5511 35.2397 27.5511C35.4585 27.5511 35.663 27.5014 35.8533 27.402C36.0437 27.2997 36.1971 27.1491 36.3136 26.9503C36.4329 26.7514 36.4911 26.5057 36.4883 26.2131ZM39.7898 29V20.2727H41.6051V23.554H41.6605C41.7401 23.3778 41.8551 23.1989 42.0057 23.017C42.1591 22.8324 42.358 22.679 42.6023 22.5568C42.8494 22.4318 43.1563 22.3693 43.5227 22.3693C44 22.3693 44.4403 22.4943 44.8438 22.7443C45.2472 22.9915 45.5696 23.3651 45.8111 23.8651C46.0526 24.3622 46.1733 24.9858 46.1733 25.7358C46.1733 26.4659 46.0554 27.0824 45.8196 27.5852C45.5866 28.0852 45.2685 28.4645 44.8651 28.723C44.4645 28.9787 44.0156 29.1065 43.5185 29.1065C43.1662 29.1065 42.8665 29.0483 42.6193 28.9318C42.375 28.8153 42.1747 28.669 42.0185 28.4929C41.8622 28.3139 41.7429 28.1335 41.6605 27.9517H41.5795V29H39.7898ZM41.5668 25.7273C41.5668 26.1165 41.6207 26.456 41.7287 26.7457C41.8366 27.0355 41.9929 27.2614 42.1974 27.4233C42.402 27.5824 42.6506 27.6619 42.9432 27.6619C43.2386 27.6619 43.4886 27.581 43.6932 27.419C43.8977 27.2543 44.0526 27.027 44.1577 26.7372C44.2656 26.4446 44.3196 26.108 44.3196 25.7273C44.3196 25.3494 44.267 25.017 44.1619 24.7301C44.0568 24.4432 43.902 24.2187 43.6974 24.0568C43.4929 23.8949 43.2415 23.8139 42.9432 23.8139C42.6477 23.8139 42.3977 23.892 42.1932 24.0483C41.9915 24.2045 41.8366 24.4261 41.7287 24.7131C41.6207 25 41.5668 25.3381 41.5668 25.7273Z" fill="white"/>
</svg>
