<svg width="50" height="50" viewBox="0 0 50 50" fill="none" xmlns="http://www.w3.org/2000/svg">
<rect width="50" height="50" fill="#5BACE4"/>
<path d="M8.87962 22V13.2727H10.7248V16.8736H14.4705V13.2727H16.3114V22H14.4705V18.3949H10.7248V22H8.87962ZM17.5004 14.794V13.2727H24.668V14.794H21.9961V22H20.1722V14.794H17.5004ZM25.8484 13.2727H28.1239L30.5273 19.1364H30.6296L33.033 13.2727H35.3086V22H33.5188V16.3196H33.4464L31.1879 21.9574H29.9691L27.7106 16.2983H27.6381V22H25.8484V13.2727ZM36.8288 22V13.2727H38.674V20.4787H42.4155V22H36.8288ZM21.5838 31.3281H19.7173C19.6832 31.0866 19.6136 30.8722 19.5085 30.6847C19.4034 30.4943 19.2685 30.3324 19.1037 30.1989C18.9389 30.0653 18.7486 29.9631 18.5327 29.892C18.3196 29.821 18.0881 29.7855 17.8381 29.7855C17.3864 29.7855 16.9929 29.8977 16.6577 30.1222C16.3224 30.3437 16.0625 30.6676 15.8778 31.0938C15.6932 31.517 15.6009 32.0312 15.6009 32.6364C15.6009 33.2585 15.6932 33.7812 15.8778 34.2045C16.0653 34.6278 16.3267 34.9474 16.6619 35.1634C16.9972 35.3793 17.3849 35.4872 17.8253 35.4872C18.0724 35.4872 18.3011 35.4545 18.5114 35.3892C18.7244 35.3239 18.9134 35.2287 19.0781 35.1037C19.2429 34.9759 19.3793 34.821 19.4872 34.6392C19.598 34.4574 19.6747 34.25 19.7173 34.017L21.5838 34.0256C21.5355 34.4261 21.4148 34.8125 21.2216 35.1847C21.0313 35.554 20.7741 35.8849 20.4503 36.1776C20.1293 36.4673 19.7457 36.6974 19.2997 36.8679C18.8565 37.0355 18.3551 37.1193 17.7955 37.1193C17.017 37.1193 16.321 36.9432 15.7074 36.5909C15.0966 36.2386 14.6136 35.7287 14.2585 35.0611C13.9062 34.3935 13.7301 33.5852 13.7301 32.6364C13.7301 31.6847 13.9091 30.875 14.267 30.2074C14.625 29.5398 15.1108 29.0312 15.7244 28.6818C16.3381 28.3295 17.0284 28.1534 17.7955 28.1534C18.3011 28.1534 18.7699 28.2244 19.2017 28.3665C19.6364 28.5085 20.0213 28.7159 20.3565 28.9886C20.6918 29.2585 20.9645 29.5895 21.1747 29.9815C21.3878 30.3736 21.5241 30.8224 21.5838 31.3281ZM27.6413 30.7827C27.6072 30.4389 27.4609 30.1719 27.2024 29.9815C26.9439 29.7912 26.593 29.696 26.1499 29.696C25.8487 29.696 25.5945 29.7386 25.3871 29.8239C25.1797 29.9062 25.0206 30.0213 24.9098 30.169C24.8018 30.3168 24.7479 30.4844 24.7479 30.6719C24.7422 30.8281 24.7749 30.9645 24.8459 31.081C24.9197 31.1974 25.0206 31.2983 25.1484 31.3835C25.2763 31.4659 25.424 31.5384 25.5916 31.6009C25.7592 31.6605 25.9382 31.7116 26.1286 31.7543L26.9126 31.9418C27.2933 32.027 27.6428 32.1406 27.9609 32.2827C28.2791 32.4247 28.5547 32.5994 28.7876 32.8068C29.0206 33.0142 29.201 33.2585 29.3288 33.5398C29.4595 33.821 29.5263 34.1435 29.5291 34.5071C29.5263 35.0412 29.3899 35.5043 29.12 35.8963C28.853 36.2855 28.4666 36.5881 27.9609 36.804C27.4581 37.017 26.8516 37.1236 26.1413 37.1236C25.4368 37.1236 24.8232 37.0156 24.3004 36.7997C23.7805 36.5838 23.3743 36.2642 23.0817 35.8409C22.7919 35.4148 22.6399 34.8878 22.6257 34.2599H24.4112C24.4311 34.5526 24.5149 34.7969 24.6626 34.9929C24.8132 35.1861 25.0135 35.3324 25.2635 35.4318C25.5163 35.5284 25.8018 35.5767 26.12 35.5767C26.4325 35.5767 26.7038 35.5312 26.9339 35.4403C27.1669 35.3494 27.3473 35.223 27.4751 35.0611C27.603 34.8991 27.6669 34.7131 27.6669 34.5028C27.6669 34.3068 27.6087 34.142 27.4922 34.0085C27.3786 33.875 27.2109 33.7614 26.9893 33.6676C26.7706 33.5739 26.5021 33.4886 26.1839 33.4119L25.2337 33.1733C24.4979 32.9943 23.9169 32.7145 23.4908 32.3338C23.0646 31.9531 22.853 31.4403 22.8558 30.7955C22.853 30.267 22.9936 29.8054 23.2777 29.4105C23.5646 29.0156 23.9581 28.7074 24.4581 28.4858C24.9581 28.2642 25.5263 28.1534 26.1626 28.1534C26.8104 28.1534 27.3757 28.2642 27.8587 28.4858C28.3445 28.7074 28.7223 29.0156 28.9922 29.4105C29.2621 29.8054 29.4013 30.2628 29.4098 30.7827H27.6413ZM35.5046 30.7827C35.4705 30.4389 35.3242 30.1719 35.0657 29.9815C34.8072 29.7912 34.4563 29.696 34.0131 29.696C33.712 29.696 33.4577 29.7386 33.2504 29.8239C33.043 29.9062 32.8839 30.0213 32.7731 30.169C32.6651 30.3168 32.6112 30.4844 32.6112 30.6719C32.6055 30.8281 32.6381 30.9645 32.7092 31.081C32.783 31.1974 32.8839 31.2983 33.0117 31.3835C33.1396 31.4659 33.2873 31.5384 33.4549 31.6009C33.6225 31.6605 33.8015 31.7116 33.9918 31.7543L34.7759 31.9418C35.1566 32.027 35.506 32.1406 35.8242 32.2827C36.1424 32.4247 36.418 32.5994 36.6509 32.8068C36.8839 33.0142 37.0643 33.2585 37.1921 33.5398C37.3228 33.821 37.3896 34.1435 37.3924 34.5071C37.3896 35.0412 37.2532 35.5043 36.9833 35.8963C36.7163 36.2855 36.3299 36.5881 35.8242 36.804C35.3214 37.017 34.7148 37.1236 34.0046 37.1236C33.3001 37.1236 32.6864 37.0156 32.1637 36.7997C31.6438 36.5838 31.2376 36.2642 30.945 35.8409C30.6552 35.4148 30.5032 34.8878 30.489 34.2599H32.2745C32.2944 34.5526 32.3782 34.7969 32.5259 34.9929C32.6765 35.1861 32.8768 35.3324 33.1268 35.4318C33.3796 35.5284 33.6651 35.5767 33.9833 35.5767C34.2958 35.5767 34.5671 35.5312 34.7972 35.4403C35.0302 35.3494 35.2106 35.223 35.3384 35.0611C35.4663 34.8991 35.5302 34.7131 35.5302 34.5028C35.5302 34.3068 35.4719 34.142 35.3555 34.0085C35.2418 33.875 35.0742 33.7614 34.8526 33.6676C34.6339 33.5739 34.3654 33.4886 34.0472 33.4119L33.0969 33.1733C32.3612 32.9943 31.7802 32.7145 31.354 32.3338C30.9279 31.9531 30.7163 31.4403 30.7191 30.7955C30.7163 30.267 30.8569 29.8054 31.141 29.4105C31.4279 29.0156 31.8214 28.7074 32.3214 28.4858C32.8214 28.2642 33.3896 28.1534 34.0259 28.1534C34.6737 28.1534 35.239 28.2642 35.7219 28.4858C36.2077 28.7074 36.5856 29.0156 36.8555 29.4105C37.1254 29.8054 37.2646 30.2628 37.2731 30.7827H35.5046Z" fill="white"/>
</svg>
