<svg width="45" height="16" viewBox="0 0 45 16" fill="none" xmlns="http://www.w3.org/2000/svg">
<path d="M2.86612 1.18182V15H0.362926V1.18182H2.86612ZM22.1175 5.8441H19.594C19.522 5.43028 19.3894 5.06368 19.1959 4.74432C19.0025 4.42045 18.7619 4.14607 18.474 3.92116C18.1861 3.69626 17.8577 3.52758 17.4889 3.41513C17.1246 3.29818 16.731 3.2397 16.3082 3.2397C15.557 3.2397 14.8912 3.42862 14.311 3.80646C13.7307 4.17981 13.2764 4.72857 12.9481 5.45277C12.6197 6.17247 12.4555 7.05185 12.4555 8.09091C12.4555 9.14796 12.6197 10.0386 12.9481 10.7628C13.2809 11.4825 13.7352 12.0268 14.311 12.3956C14.8912 12.7599 15.5547 12.9421 16.3014 12.9421C16.7152 12.9421 17.1021 12.8881 17.4619 12.7802C17.8263 12.6677 18.1524 12.5036 18.4403 12.2876C18.7326 12.0717 18.9778 11.8063 19.1757 11.4915C19.3781 11.1766 19.5175 10.8168 19.594 10.4119L22.1175 10.4254C22.023 11.0821 21.8183 11.6984 21.5035 12.2741C21.1931 12.8499 20.786 13.3582 20.2822 13.799C19.7784 14.2353 19.1892 14.5772 18.5145 14.8246C17.8398 15.0675 17.0908 15.1889 16.2677 15.1889C15.0532 15.1889 13.9691 14.9078 13.0155 14.3455C12.0619 13.7833 11.3108 12.9714 10.762 11.9098C10.2132 10.8482 9.93883 9.57528 9.93883 8.09091C9.93883 6.60204 10.2155 5.32907 10.7687 4.27202C11.322 3.21046 12.0754 2.39856 13.029 1.83629C13.9826 1.27403 15.0622 0.992897 16.2677 0.992897C17.0368 0.992897 17.752 1.10085 18.4133 1.31676C19.0745 1.53267 19.6637 1.84979 20.181 2.26811C20.6983 2.68194 21.1234 3.19022 21.4562 3.79297C21.7936 4.39122 22.014 5.07493 22.1175 5.8441ZM27.2841 15.2092C26.6274 15.2092 26.0359 15.0922 25.5096 14.8583C24.9878 14.6199 24.574 14.2691 24.2681 13.8058C23.9667 13.3424 23.8161 12.7712 23.8161 12.092C23.8161 11.5072 23.924 11.0237 24.1399 10.6413C24.3558 10.259 24.6504 9.95312 25.0238 9.72372C25.3971 9.49432 25.8177 9.32114 26.2855 9.20419C26.7578 9.08274 27.2459 8.99503 27.7496 8.94105C28.3569 8.87808 28.8494 8.82185 29.2273 8.77237C29.6051 8.71839 29.8795 8.63743 30.0504 8.52947C30.2259 8.41702 30.3136 8.24384 30.3136 8.00994V7.96946C30.3136 7.46117 30.1629 7.06759 29.8615 6.78871C29.5601 6.50982 29.1261 6.37038 28.5593 6.37038C27.9611 6.37038 27.4865 6.50083 27.1357 6.76172C26.7893 7.02261 26.5554 7.33073 26.4339 7.68608L24.1534 7.36222C24.3333 6.73248 24.6302 6.2062 25.044 5.78338C25.4579 5.35606 25.9639 5.03669 26.5621 4.82528C27.1604 4.60938 27.8216 4.50142 28.5458 4.50142C29.0451 4.50142 29.5421 4.5599 30.0369 4.67685C30.5317 4.7938 30.9838 4.98722 31.3931 5.2571C31.8024 5.52249 32.1308 5.88459 32.3782 6.34339C32.6301 6.8022 32.756 7.37571 32.756 8.06392V15H30.408V13.5763H30.3271C30.1786 13.8642 29.9695 14.1341 29.6996 14.386C29.4342 14.6334 29.0991 14.8336 28.6942 14.9865C28.2939 15.1349 27.8239 15.2092 27.2841 15.2092ZM27.9183 13.4144C28.4086 13.4144 28.8337 13.3177 29.1935 13.1243C29.5534 12.9264 29.83 12.6655 30.0234 12.3416C30.2214 12.0178 30.3203 11.6647 30.3203 11.2823V10.0611C30.2438 10.1241 30.1134 10.1825 29.929 10.2365C29.7491 10.2905 29.5466 10.3377 29.3217 10.3782C29.0968 10.4187 28.8742 10.4547 28.6538 10.4862C28.4334 10.5176 28.2422 10.5446 28.0803 10.5671C27.7159 10.6166 27.3898 10.6976 27.1019 10.81C26.814 10.9225 26.5869 11.0799 26.4205 11.2823C26.254 11.4802 26.1708 11.7366 26.1708 12.0515C26.1708 12.5013 26.335 12.8409 26.6634 13.0703C26.9917 13.2997 27.41 13.4144 27.9183 13.4144ZM37.6545 8.92756V15H35.212V4.63636H37.5465V6.39737H37.668C37.9064 5.81712 38.2865 5.35606 38.8082 5.0142C39.3345 4.67235 39.9845 4.50142 40.7582 4.50142C41.4734 4.50142 42.0964 4.65436 42.6271 4.96023C43.1624 5.2661 43.5762 5.70916 43.8686 6.28942C44.1655 6.86967 44.3117 7.57363 44.3072 8.40128V15H41.8647V8.77912C41.8647 8.08641 41.6848 7.54439 41.3249 7.15305C40.9696 6.76172 40.477 6.56605 39.8473 6.56605C39.42 6.56605 39.0399 6.66051 38.707 6.84943C38.3787 7.03385 38.12 7.30149 37.9311 7.65234C37.7467 8.0032 37.6545 8.42827 37.6545 8.92756Z" fill="#5BACE4"/>
</svg>
