<svg width="50" height="50" viewBox="0 0 50 50" fill="none" xmlns="http://www.w3.org/2000/svg">
<rect width="50" height="50" fill="#5BACE4"/>
<path d="M20.0881 17.4545H23.1278V27.5966C23.1278 28.5341 22.9171 29.3485 22.4957 30.0398C22.0791 30.7311 21.4991 31.2637 20.7557 31.6378C20.0123 32.0118 19.1482 32.1989 18.1634 32.1989C17.2874 32.1989 16.492 32.045 15.777 31.7372C15.0668 31.4247 14.5033 30.9512 14.0866 30.3168C13.67 29.6776 13.464 28.875 13.4688 27.9091H16.5298C16.5393 28.2926 16.6174 28.6217 16.7642 28.8963C16.9157 29.1662 17.1217 29.3745 17.3821 29.5213C17.6473 29.6634 17.9598 29.7344 18.3196 29.7344C18.6984 29.7344 19.018 29.6539 19.2784 29.4929C19.5436 29.3272 19.7448 29.0857 19.8821 28.7685C20.0194 28.4512 20.0881 28.0606 20.0881 27.5966V17.4545ZM34.6903 24.2017L31.9205 24.3722C31.8731 24.1354 31.7713 23.9223 31.6151 23.733C31.4588 23.5388 31.2528 23.3849 30.9972 23.2713C30.7462 23.1529 30.4455 23.0938 30.0952 23.0938C29.6264 23.0938 29.2311 23.1932 28.9091 23.392C28.5871 23.5862 28.4261 23.8466 28.4261 24.1733C28.4261 24.4337 28.5303 24.6539 28.7386 24.8338C28.947 25.0137 29.3045 25.1581 29.8111 25.267L31.7855 25.6648C32.8461 25.8826 33.6368 26.233 34.1577 26.7159C34.6785 27.1989 34.9389 27.8333 34.9389 28.6193C34.9389 29.3343 34.7282 29.9616 34.3068 30.5014C33.8902 31.0412 33.3172 31.4626 32.5881 31.7656C31.8636 32.0639 31.0279 32.2131 30.081 32.2131C28.6368 32.2131 27.4863 31.9124 26.6293 31.3111C25.777 30.705 25.2775 29.8812 25.1307 28.8395L28.1065 28.6832C28.1965 29.1236 28.4143 29.4598 28.7599 29.6918C29.1056 29.919 29.5483 30.0327 30.0881 30.0327C30.6184 30.0327 31.0445 29.9309 31.3665 29.7273C31.6932 29.5189 31.8589 29.2514 31.8636 28.9247C31.8589 28.6501 31.7429 28.4252 31.5156 28.25C31.2884 28.0701 30.938 27.9328 30.4645 27.8381L28.5753 27.4616C27.5099 27.2486 26.7169 26.8793 26.196 26.3537C25.6799 25.8281 25.4219 25.1581 25.4219 24.3438C25.4219 23.643 25.6113 23.0393 25.9901 22.5327C26.3736 22.026 26.911 21.6354 27.6023 21.3608C28.2983 21.0862 29.1127 20.9489 30.0455 20.9489C31.4233 20.9489 32.5076 21.2401 33.2983 21.8224C34.0938 22.4048 34.5578 23.1979 34.6903 24.2017Z" fill="white"/>
</svg>
