<svg width="415" height="244" viewBox="0 0 415 244" fill="none" xmlns="http://www.w3.org/2000/svg">
<path d="M3.85298 68V17.0909H16.1577V38.6179H16.8288L33.6577 17.0909H48.1499L30.103 39.8111L48.473 68H33.7571L21.0795 47.9893L16.1577 54.2038V68H3.85298ZM55.068 68L46.5453 35.2727H57.0069L61.4174 56.2386H61.6944L66.4245 35.2727H76.6305L81.4885 56.0895H81.7654L86.0481 35.2727H96.5098L87.9657 68H76.8223L71.7086 48.9304H71.3464L66.2328 68H55.068ZM106.917 68.554C104.829 68.554 102.975 68.206 101.356 67.5099C99.7509 66.7997 98.4796 65.7344 97.5421 64.3139C96.6188 62.8793 96.1571 61.0824 96.1571 58.9233C96.1571 57.1051 96.4767 55.571 97.1159 54.321C97.7551 53.071 98.6358 52.0554 99.758 51.2741C100.88 50.4929 102.173 49.9034 103.636 49.5057C105.099 49.0937 106.661 48.8168 108.323 48.6747C110.184 48.5043 111.683 48.3267 112.819 48.142C113.955 47.9432 114.779 47.6662 115.291 47.3111C115.816 46.9418 116.079 46.4233 116.079 45.7557V45.6491C116.079 44.5554 115.703 43.7102 114.95 43.1136C114.197 42.517 113.181 42.2188 111.903 42.2188C110.525 42.2188 109.417 42.517 108.579 43.1136C107.741 43.7102 107.208 44.5341 106.981 45.5852L97.3716 45.2443C97.6557 43.2557 98.3873 41.4801 99.5662 39.9176C100.759 38.3409 102.393 37.1051 104.467 36.2102C106.555 35.3011 109.062 34.8466 111.988 34.8466C114.076 34.8466 116.001 35.0952 117.762 35.5923C119.524 36.0753 121.058 36.7855 122.365 37.723C123.671 38.6463 124.68 39.7827 125.39 41.1321C126.115 42.4815 126.477 44.0227 126.477 45.7557V68H116.676V63.4403H116.42C115.838 64.5483 115.092 65.4858 114.183 66.2528C113.288 67.0199 112.23 67.5952 111.008 67.9787C109.801 68.3622 108.437 68.554 106.917 68.554ZM110.134 61.7358C111.257 61.7358 112.265 61.5085 113.16 61.054C114.069 60.5994 114.794 59.9744 115.333 59.179C115.873 58.3693 116.143 57.4318 116.143 56.3665V53.2557C115.845 53.4119 115.482 53.554 115.056 53.6818C114.644 53.8097 114.19 53.9304 113.693 54.044C113.195 54.1577 112.684 54.2571 112.159 54.3423C111.633 54.4276 111.129 54.5057 110.646 54.5767C109.666 54.733 108.828 54.9744 108.132 55.3011C107.45 55.6278 106.924 56.054 106.555 56.5795C106.2 57.0909 106.022 57.7017 106.022 58.4119C106.022 59.4915 106.406 60.3153 107.173 60.8835C107.954 61.4517 108.941 61.7358 110.134 61.7358ZM139.244 59.4134L139.286 46.9915H140.735L149.94 35.2727H161.744L148.065 52.0625H145.316L139.244 59.4134ZM129.847 68V24.3636H140.267V68H129.847ZM150.174 68L141.609 54.4062L148.47 47.0128L162.213 68H150.174ZM193.595 17.0909H205.726V52.2898C205.709 55.5876 204.922 58.4711 203.365 60.9403C201.807 63.393 199.652 65.2988 196.901 66.6577C194.167 68.0166 191.002 68.696 187.406 68.696C184.224 68.696 181.332 68.1409 178.73 67.0305C176.145 65.9202 174.082 64.1967 172.541 61.8601C171.016 59.5234 170.262 56.5322 170.279 52.8864H182.534C182.583 54.1955 182.832 55.3142 183.279 56.2422C183.743 57.1536 184.381 57.8414 185.193 58.3054C186.005 58.7694 186.975 59.0014 188.102 59.0014C189.278 59.0014 190.273 58.7528 191.085 58.2557C191.897 57.742 192.51 56.9879 192.924 55.9936C193.355 54.9993 193.579 53.7647 193.595 52.2898V17.0909ZM209.4 68V35.2727H219.819V68H209.4ZM214.62 31.4588C213.157 31.4588 211.9 30.9759 210.849 30.0099C209.798 29.0298 209.272 27.8509 209.272 26.473C209.272 25.1094 209.798 23.9446 210.849 22.9787C211.9 21.9986 213.157 21.5085 214.62 21.5085C216.098 21.5085 217.355 21.9986 218.392 22.9787C219.443 23.9446 219.968 25.1094 219.968 26.473C219.968 27.8509 219.443 29.0298 218.392 30.0099C217.355 30.9759 216.098 31.4588 214.62 31.4588ZM243.783 68V17.0909H256.087V37.5241H276.148V17.0909H288.428V68H276.148V47.5419H256.087V68H243.783ZM298.466 80.2727C297.216 80.2727 296.037 80.1733 294.929 79.9744C293.821 79.7898 292.87 79.5412 292.074 79.2287L294.375 71.6648C295.398 72.0057 296.321 72.2045 297.145 72.2614C297.983 72.3182 298.701 72.1832 299.297 71.8565C299.908 71.544 300.377 70.983 300.703 70.1733L301.108 69.1932L289.475 35.2727H300.384L306.414 58.625H306.755L312.87 35.2727H323.843L311.506 71.1321C310.909 72.9219 310.064 74.4986 308.971 75.8622C307.891 77.2401 306.492 78.3196 304.773 79.1009C303.069 79.8821 300.966 80.2727 298.466 80.2727ZM345.953 53.8736V35.2727H356.35V68H346.422V61.9062H346.081C345.356 63.9091 344.12 65.5 342.373 66.679C340.64 67.8437 338.545 68.4261 336.088 68.4261C333.858 68.4261 331.897 67.9148 330.207 66.892C328.517 65.8693 327.203 64.4418 326.265 62.6094C325.328 60.7628 324.852 58.6037 324.838 56.1321V35.2727H335.257V54.0866C335.271 55.8622 335.74 57.2614 336.663 58.2841C337.586 59.3068 338.843 59.8182 340.434 59.8182C341.471 59.8182 342.402 59.5909 343.225 59.1364C344.064 58.6676 344.724 57.9929 345.207 57.1122C345.704 56.2173 345.953 55.1378 345.953 53.8736ZM370.401 49.3352V68H359.982V35.2727H369.89V41.2812H370.252C370.977 39.2784 372.212 37.7088 373.96 36.5724C375.707 35.4219 377.788 34.8466 380.202 34.8466C382.504 34.8466 384.499 35.3651 386.19 36.402C387.894 37.4247 389.215 38.8594 390.153 40.706C391.104 42.5384 391.573 44.6832 391.559 47.1406V68H381.14V49.1861C381.154 47.3679 380.692 45.9474 379.755 44.9247C378.832 43.902 377.546 43.3906 375.898 43.3906C374.805 43.3906 373.839 43.6321 373.001 44.1151C372.177 44.5838 371.538 45.2585 371.083 46.1392C370.643 47.0199 370.415 48.0852 370.401 49.3352Z" fill="black"/>
<path d="M176.868 136L169.684 110.545H174.643L179.229 129.251H179.465L184.362 110.545H188.874L193.783 129.263H194.007L198.593 110.545H203.553L196.369 136H191.82L186.724 118.14H186.525L181.417 136H176.868ZM212.355 136.373C210.44 136.373 208.787 135.975 207.395 135.18C206.012 134.376 204.947 133.241 204.201 131.774C203.455 130.299 203.082 128.563 203.082 126.566C203.082 124.603 203.455 122.879 204.201 121.396C204.955 119.904 206.007 118.744 207.358 117.916C208.709 117.079 210.295 116.661 212.118 116.661C213.295 116.661 214.405 116.851 215.449 117.232C216.502 117.605 217.43 118.185 218.233 118.972C219.045 119.759 219.683 120.762 220.147 121.98C220.611 123.19 220.844 124.632 220.844 126.305V127.685H205.195V124.652H216.531C216.522 123.791 216.336 123.024 215.971 122.353C215.607 121.674 215.097 121.139 214.443 120.75C213.796 120.36 213.042 120.165 212.181 120.165C211.261 120.165 210.453 120.389 209.757 120.837C209.061 121.276 208.518 121.856 208.129 122.577C207.748 123.289 207.553 124.072 207.544 124.926V127.573C207.544 128.683 207.748 129.636 208.154 130.432C208.56 131.219 209.127 131.824 209.856 132.246C210.585 132.661 211.439 132.868 212.417 132.868C213.071 132.868 213.664 132.777 214.194 132.594C214.724 132.404 215.184 132.126 215.574 131.762C215.963 131.397 216.257 130.946 216.456 130.407L220.657 130.879C220.392 131.99 219.886 132.959 219.141 133.788C218.403 134.608 217.459 135.246 216.307 135.702C215.155 136.149 213.838 136.373 212.355 136.373ZM224.149 136V110.545H228.648V120.066H228.834C229.066 119.602 229.394 119.109 229.816 118.587C230.239 118.057 230.811 117.605 231.532 117.232C232.252 116.851 233.172 116.661 234.291 116.661C235.766 116.661 237.096 117.038 238.28 117.792C239.474 118.537 240.418 119.643 241.114 121.11C241.819 122.568 242.171 124.358 242.171 126.479C242.171 128.576 241.827 130.357 241.139 131.824C240.451 133.29 239.515 134.409 238.33 135.18C237.145 135.95 235.803 136.336 234.303 136.336C233.209 136.336 232.302 136.153 231.581 135.789C230.86 135.424 230.28 134.985 229.841 134.471C229.41 133.949 229.075 133.456 228.834 132.992H228.573V136H224.149ZM228.561 126.455C228.561 127.689 228.735 128.77 229.083 129.699C229.439 130.627 229.949 131.352 230.612 131.874C231.283 132.387 232.095 132.644 233.048 132.644C234.042 132.644 234.875 132.379 235.546 131.849C236.217 131.31 236.723 130.577 237.062 129.649C237.41 128.712 237.584 127.648 237.584 126.455C237.584 125.27 237.415 124.217 237.075 123.298C236.735 122.378 236.23 121.657 235.559 121.135C234.887 120.613 234.05 120.352 233.048 120.352C232.087 120.352 231.271 120.605 230.599 121.11C229.928 121.616 229.419 122.324 229.071 123.235C228.731 124.147 228.561 125.22 228.561 126.455ZM262.102 136H253.476V110.545H262.276C264.803 110.545 266.974 111.055 268.789 112.074C270.612 113.085 272.012 114.539 272.99 116.437C273.968 118.334 274.456 120.605 274.456 123.248C274.456 125.899 273.963 128.178 272.977 130.084C272 131.99 270.587 133.452 268.739 134.471C266.9 135.49 264.687 136 262.102 136ZM258.087 132.01H261.878C263.651 132.01 265.131 131.687 266.315 131.041C267.5 130.386 268.391 129.413 268.988 128.12C269.584 126.819 269.883 125.195 269.883 123.248C269.883 121.301 269.584 119.685 268.988 118.401C268.391 117.108 267.509 116.143 266.34 115.505C265.18 114.858 263.738 114.535 262.015 114.535H258.087V132.01ZM286.39 136.373C284.476 136.373 282.823 135.975 281.431 135.18C280.048 134.376 278.983 133.241 278.237 131.774C277.491 130.299 277.118 128.563 277.118 126.566C277.118 124.603 277.491 122.879 278.237 121.396C278.991 119.904 280.043 118.744 281.394 117.916C282.745 117.079 284.331 116.661 286.154 116.661C287.331 116.661 288.441 116.851 289.485 117.232C290.538 117.605 291.466 118.185 292.269 118.972C293.081 119.759 293.719 120.762 294.183 121.98C294.647 123.19 294.879 124.632 294.879 126.305V127.685H279.231V124.652H290.567C290.558 123.791 290.372 123.024 290.007 122.353C289.643 121.674 289.133 121.139 288.479 120.75C287.832 120.36 287.078 120.165 286.216 120.165C285.297 120.165 284.489 120.389 283.793 120.837C283.097 121.276 282.554 121.856 282.165 122.577C281.783 123.289 281.589 124.072 281.58 124.926V127.573C281.58 128.683 281.783 129.636 282.189 130.432C282.595 131.219 283.163 131.824 283.892 132.246C284.621 132.661 285.475 132.868 286.453 132.868C287.107 132.868 287.7 132.777 288.23 132.594C288.76 132.404 289.22 132.126 289.61 131.762C289.999 131.397 290.293 130.946 290.492 130.407L294.693 130.879C294.428 131.99 293.922 132.959 293.177 133.788C292.439 134.608 291.495 135.246 290.343 135.702C289.191 136.149 287.874 136.373 286.39 136.373ZM313.075 121.955L308.973 122.403C308.857 121.988 308.654 121.599 308.364 121.234C308.082 120.87 307.701 120.576 307.221 120.352C306.74 120.128 306.152 120.016 305.456 120.016C304.519 120.016 303.732 120.219 303.094 120.625C302.464 121.031 302.154 121.558 302.162 122.204C302.154 122.759 302.357 123.211 302.771 123.559C303.194 123.907 303.89 124.192 304.859 124.416L308.115 125.112C309.922 125.502 311.264 126.119 312.142 126.964C313.029 127.809 313.476 128.915 313.485 130.283C313.476 131.484 313.124 132.545 312.428 133.464C311.741 134.376 310.784 135.089 309.557 135.602C308.331 136.116 306.922 136.373 305.331 136.373C302.995 136.373 301.114 135.884 299.689 134.906C298.263 133.92 297.414 132.549 297.141 130.792L301.528 130.37C301.727 131.231 302.15 131.882 302.796 132.321C303.442 132.76 304.283 132.98 305.319 132.98C306.388 132.98 307.245 132.76 307.892 132.321C308.546 131.882 308.874 131.339 308.874 130.693C308.874 130.146 308.662 129.694 308.24 129.338C307.825 128.982 307.179 128.708 306.301 128.518L303.044 127.834C301.213 127.453 299.858 126.811 298.98 125.908C298.102 124.996 297.667 123.844 297.675 122.452C297.667 121.276 297.986 120.257 298.632 119.395C299.287 118.525 300.194 117.854 301.354 117.381C302.522 116.901 303.869 116.661 305.393 116.661C307.631 116.661 309.391 117.137 310.676 118.09C311.968 119.043 312.768 120.331 313.075 121.955ZM324.797 143.557C323.182 143.557 321.794 143.337 320.634 142.898C319.474 142.467 318.541 141.887 317.837 141.158C317.133 140.429 316.644 139.621 316.371 138.734L320.422 137.752C320.605 138.125 320.87 138.494 321.218 138.859C321.566 139.232 322.034 139.538 322.622 139.778C323.219 140.027 323.969 140.151 324.872 140.151C326.148 140.151 327.204 139.841 328.041 139.219C328.878 138.606 329.297 137.595 329.297 136.186V132.57H329.073C328.841 133.034 328.501 133.51 328.054 133.999C327.615 134.488 327.03 134.898 326.301 135.229C325.58 135.561 324.673 135.727 323.579 135.727C322.113 135.727 320.783 135.383 319.59 134.695C318.405 133.999 317.46 132.963 316.756 131.588C316.06 130.204 315.712 128.472 315.712 126.392C315.712 124.296 316.06 122.527 316.756 121.085C317.46 119.635 318.409 118.537 319.602 117.792C320.795 117.038 322.125 116.661 323.592 116.661C324.71 116.661 325.63 116.851 326.351 117.232C327.08 117.605 327.66 118.057 328.091 118.587C328.522 119.109 328.849 119.602 329.073 120.066H329.322V116.909H333.759V136.311C333.759 137.943 333.369 139.294 332.59 140.363C331.811 141.431 330.747 142.231 329.396 142.761C328.045 143.292 326.513 143.557 324.797 143.557ZM324.835 132.197C325.788 132.197 326.6 131.965 327.271 131.501C327.942 131.037 328.451 130.37 328.799 129.5C329.148 128.63 329.322 127.586 329.322 126.368C329.322 125.166 329.148 124.114 328.799 123.211C328.46 122.307 327.954 121.607 327.283 121.11C326.62 120.605 325.804 120.352 324.835 120.352C323.832 120.352 322.995 120.613 322.324 121.135C321.653 121.657 321.147 122.374 320.808 123.285C320.468 124.188 320.298 125.216 320.298 126.368C320.298 127.536 320.468 128.559 320.808 129.438C321.156 130.308 321.665 130.987 322.336 131.476C323.016 131.956 323.849 132.197 324.835 132.197ZM337.67 136V116.909H342.169V136H337.67ZM339.932 114.2C339.219 114.2 338.606 113.963 338.092 113.491C337.579 113.011 337.322 112.435 337.322 111.763C337.322 111.084 337.579 110.508 338.092 110.036C338.606 109.555 339.219 109.315 339.932 109.315C340.653 109.315 341.266 109.555 341.771 110.036C342.285 110.508 342.542 111.084 342.542 111.763C342.542 112.435 342.285 113.011 341.771 113.491C341.266 113.963 340.653 114.2 339.932 114.2ZM350.595 124.814V136H346.096V116.909H350.396V120.153H350.62C351.059 119.084 351.759 118.235 352.72 117.605C353.69 116.975 354.887 116.661 356.312 116.661C357.63 116.661 358.777 116.942 359.755 117.506C360.741 118.069 361.504 118.885 362.042 119.954C362.589 121.023 362.858 122.32 362.85 123.844V136H358.351V124.54C358.351 123.264 358.019 122.266 357.356 121.545C356.702 120.824 355.795 120.464 354.634 120.464C353.847 120.464 353.147 120.638 352.534 120.986C351.929 121.326 351.453 121.819 351.105 122.465C350.765 123.111 350.595 123.894 350.595 124.814ZM375.176 136.373C373.262 136.373 371.608 135.975 370.216 135.18C368.833 134.376 367.768 133.241 367.022 131.774C366.276 130.299 365.904 128.563 365.904 126.566C365.904 124.603 366.276 122.879 367.022 121.396C367.776 119.904 368.829 118.744 370.179 117.916C371.53 117.079 373.117 116.661 374.939 116.661C376.116 116.661 377.226 116.851 378.27 117.232C379.323 117.605 380.251 118.185 381.055 118.972C381.867 119.759 382.505 120.762 382.969 121.98C383.433 123.19 383.665 124.632 383.665 126.305V127.685H368.017V124.652H379.352C379.343 123.791 379.157 123.024 378.792 122.353C378.428 121.674 377.918 121.139 377.264 120.75C376.617 120.36 375.863 120.165 375.002 120.165C374.082 120.165 373.274 120.389 372.578 120.837C371.882 121.276 371.339 121.856 370.95 122.577C370.569 123.289 370.374 124.072 370.366 124.926V127.573C370.366 128.683 370.569 129.636 370.975 130.432C371.381 131.219 371.948 131.824 372.677 132.246C373.407 132.661 374.26 132.868 375.238 132.868C375.892 132.868 376.485 132.777 377.015 132.594C377.545 132.404 378.005 132.126 378.395 131.762C378.784 131.397 379.078 130.946 379.277 130.407L383.478 130.879C383.213 131.99 382.708 132.959 381.962 133.788C381.224 134.608 380.28 135.246 379.128 135.702C377.976 136.149 376.659 136.373 375.176 136.373ZM386.771 136V116.909H391.134V120.091H391.332C391.68 118.989 392.277 118.14 393.122 117.543C393.976 116.938 394.949 116.636 396.043 116.636C396.292 116.636 396.569 116.648 396.876 116.673C397.191 116.69 397.452 116.719 397.659 116.76V120.899C397.468 120.833 397.166 120.775 396.751 120.725C396.345 120.667 395.952 120.638 395.571 120.638C394.75 120.638 394.013 120.816 393.358 121.172C392.712 121.52 392.202 122.005 391.83 122.626C391.457 123.248 391.27 123.965 391.27 124.777V136H386.771Z" fill="black"/>
<path d="M222.228 179V146.273H234.501C237.015 146.273 239.124 146.741 240.829 147.679C242.544 148.616 243.838 149.906 244.712 151.546C245.596 153.176 246.038 155.03 246.038 157.107C246.038 159.206 245.596 161.07 244.712 162.7C243.828 164.33 242.523 165.614 240.797 166.551C239.071 167.478 236.946 167.942 234.421 167.942H226.287V163.068H233.622C235.092 163.068 236.296 162.812 237.233 162.301C238.171 161.789 238.863 161.086 239.311 160.191C239.769 159.297 239.998 158.268 239.998 157.107C239.998 155.946 239.769 154.923 239.311 154.039C238.863 153.155 238.165 152.468 237.217 151.978C236.28 151.477 235.071 151.227 233.59 151.227H228.157V179H222.228ZM260.387 179.479C257.99 179.479 255.913 178.952 254.155 177.897C252.397 176.843 251.034 175.367 250.064 173.471C249.105 171.575 248.626 169.359 248.626 166.823C248.626 164.288 249.105 162.066 250.064 160.159C251.034 158.252 252.397 156.772 254.155 155.717C255.913 154.662 257.99 154.135 260.387 154.135C262.784 154.135 264.862 154.662 266.62 155.717C268.377 156.772 269.736 158.252 270.695 160.159C271.664 162.066 272.149 164.288 272.149 166.823C272.149 169.359 271.664 171.575 270.695 173.471C269.736 175.367 268.377 176.843 266.62 177.897C264.862 178.952 262.784 179.479 260.387 179.479ZM260.419 174.845C261.719 174.845 262.806 174.488 263.679 173.775C264.553 173.05 265.203 172.081 265.629 170.866C266.066 169.652 266.284 168.299 266.284 166.807C266.284 165.305 266.066 163.947 265.629 162.732C265.203 161.507 264.553 160.532 263.679 159.808C262.806 159.083 261.719 158.721 260.419 158.721C259.088 158.721 257.98 159.083 257.095 159.808C256.222 160.532 255.567 161.507 255.13 162.732C254.704 163.947 254.491 165.305 254.491 166.807C254.491 168.299 254.704 169.652 255.13 170.866C255.567 172.081 256.222 173.05 257.095 173.775C257.98 174.488 259.088 174.845 260.419 174.845ZM276.159 179V154.455H281.768V158.545H282.023C282.471 157.129 283.238 156.037 284.324 155.27C285.422 154.492 286.674 154.103 288.08 154.103C288.399 154.103 288.756 154.119 289.15 154.151C289.555 154.172 289.891 154.21 290.157 154.263V159.584C289.912 159.499 289.523 159.424 288.991 159.36C288.469 159.286 287.963 159.249 287.473 159.249C286.418 159.249 285.47 159.478 284.628 159.936C283.797 160.383 283.142 161.006 282.663 161.805C282.183 162.604 281.943 163.526 281.943 164.57V179H276.159ZM306.676 154.455V158.929H292.565V154.455H306.676ZM296.049 148.574H301.834V171.617C301.834 172.395 301.951 172.991 302.185 173.407C302.43 173.812 302.75 174.089 303.144 174.238C303.538 174.387 303.975 174.462 304.454 174.462C304.817 174.462 305.147 174.435 305.445 174.382C305.754 174.328 305.988 174.281 306.148 174.238L307.123 178.76C306.814 178.867 306.372 178.984 305.797 179.112C305.232 179.24 304.54 179.314 303.719 179.336C302.27 179.378 300.965 179.16 299.804 178.68C298.643 178.19 297.721 177.434 297.04 176.411C296.368 175.388 296.038 174.11 296.049 172.576V148.574ZM323.046 154.455V158.929H308.536V154.455H323.046ZM312.164 179V152.137C312.164 150.486 312.504 149.112 313.186 148.015C313.879 146.917 314.806 146.097 315.967 145.554C317.128 145.01 318.417 144.739 319.834 144.739C320.835 144.739 321.725 144.819 322.503 144.978C323.28 145.138 323.856 145.282 324.229 145.41L323.078 149.884C322.833 149.81 322.524 149.735 322.151 149.661C321.778 149.575 321.363 149.533 320.905 149.533C319.829 149.533 319.067 149.794 318.62 150.316C318.183 150.827 317.964 151.562 317.964 152.521V179H312.164ZM336.46 179.479C334.063 179.479 331.986 178.952 330.228 177.897C328.47 176.843 327.107 175.367 326.137 173.471C325.178 171.575 324.699 169.359 324.699 166.823C324.699 164.288 325.178 162.066 326.137 160.159C327.107 158.252 328.47 156.772 330.228 155.717C331.986 154.662 334.063 154.135 336.46 154.135C338.857 154.135 340.935 154.662 342.692 155.717C344.45 156.772 345.809 158.252 346.767 160.159C347.737 162.066 348.222 164.288 348.222 166.823C348.222 169.359 347.737 171.575 346.767 173.471C345.809 175.367 344.45 176.843 342.692 177.897C340.935 178.952 338.857 179.479 336.46 179.479ZM336.492 174.845C337.792 174.845 338.879 174.488 339.752 173.775C340.626 173.05 341.276 172.081 341.702 170.866C342.138 169.652 342.357 168.299 342.357 166.807C342.357 165.305 342.138 163.947 341.702 162.732C341.276 161.507 340.626 160.532 339.752 159.808C338.879 159.083 337.792 158.721 336.492 158.721C335.161 158.721 334.053 159.083 333.168 159.808C332.295 160.532 331.64 161.507 331.203 162.732C330.777 163.947 330.564 165.305 330.564 166.807C330.564 168.299 330.777 169.652 331.203 170.866C331.64 172.081 332.295 173.05 333.168 173.775C334.053 174.488 335.161 174.845 336.492 174.845ZM358.016 146.273V179H352.231V146.273H358.016ZM363.065 179V154.455H368.85V179H363.065ZM365.973 150.971C365.057 150.971 364.269 150.667 363.608 150.06C362.948 149.442 362.617 148.702 362.617 147.839C362.617 146.965 362.948 146.225 363.608 145.618C364.269 145 365.057 144.691 365.973 144.691C366.9 144.691 367.688 145 368.338 145.618C368.999 146.225 369.329 146.965 369.329 147.839C369.329 148.702 368.999 149.442 368.338 150.06C367.688 150.667 366.9 150.971 365.973 150.971ZM384.605 179.479C382.208 179.479 380.131 178.952 378.373 177.897C376.615 176.843 375.251 175.367 374.282 173.471C373.323 171.575 372.844 169.359 372.844 166.823C372.844 164.288 373.323 162.066 374.282 160.159C375.251 158.252 376.615 156.772 378.373 155.717C380.131 154.662 382.208 154.135 384.605 154.135C387.002 154.135 389.079 154.662 390.837 155.717C392.595 156.772 393.953 158.252 394.912 160.159C395.882 162.066 396.366 164.288 396.366 166.823C396.366 169.359 395.882 171.575 394.912 173.471C393.953 175.367 392.595 176.843 390.837 177.897C389.079 178.952 387.002 179.479 384.605 179.479ZM384.637 174.845C385.937 174.845 387.023 174.488 387.897 173.775C388.77 173.05 389.42 172.081 389.846 170.866C390.283 169.652 390.502 168.299 390.502 166.807C390.502 165.305 390.283 163.947 389.846 162.732C389.42 161.507 388.77 160.532 387.897 159.808C387.023 159.083 385.937 158.721 384.637 158.721C383.305 158.721 382.197 159.083 381.313 159.808C380.439 160.532 379.784 161.507 379.347 162.732C378.921 163.947 378.708 165.305 378.708 166.807C378.708 168.299 378.921 169.652 379.347 170.866C379.784 172.081 380.439 173.05 381.313 173.775C382.197 174.488 383.305 174.845 384.637 174.845Z" fill="black"/>
<path d="M222.578 233C222.188 233 221.992 232.785 221.992 232.355V216.84C221.992 216.41 222.188 216.195 222.578 216.195H223.656C224.047 216.195 224.242 216.41 224.242 216.84V232.355C224.242 232.785 224.047 233 223.656 233H222.578ZM228.496 218.27C228.145 218.27 227.969 218.094 227.969 217.742V216.312C227.969 215.961 228.145 215.785 228.496 215.785H229.855C230.207 215.785 230.383 215.961 230.383 216.312V217.742C230.383 218.562 230.293 219.281 230.113 219.898C229.941 220.508 229.598 221.043 229.082 221.504C228.91 221.652 228.766 221.672 228.648 221.562L228.121 221.07C228.004 220.961 228.031 220.828 228.203 220.672C228.469 220.438 228.684 220.102 228.848 219.664C229.02 219.219 229.105 218.754 229.105 218.27H228.496ZM234.262 233C233.91 233 233.734 232.824 233.734 232.473V221.223C233.734 220.871 233.91 220.695 234.262 220.695H235.246C235.598 220.695 235.773 220.871 235.773 221.223V222.16H235.82C236.328 221.598 236.879 221.18 237.473 220.906C238.066 220.633 238.637 220.496 239.184 220.496C240.191 220.496 240.965 220.75 241.504 221.258C242.051 221.758 242.402 222.262 242.559 222.77H242.605C243.035 222.129 243.578 221.59 244.234 221.152C244.891 220.715 245.59 220.496 246.332 220.496C247.574 220.496 248.512 220.898 249.145 221.703C249.777 222.5 250.094 223.594 250.094 224.984V232.473C250.094 232.824 249.918 233 249.566 233H248.559C248.207 233 248.031 232.824 248.031 232.473V225.664C248.031 224.133 247.84 223.145 247.457 222.699C247.074 222.246 246.484 222.02 245.688 222.02C244.906 222.02 244.254 222.355 243.73 223.027C243.207 223.691 242.945 224.695 242.945 226.039V232.473C242.945 232.824 242.77 233 242.418 233H241.41C241.059 233 240.883 232.824 240.883 232.473V225.664C240.883 224.133 240.691 223.145 240.309 222.699C239.926 222.246 239.336 222.02 238.539 222.02C237.758 222.02 237.105 222.324 236.582 222.934C236.059 223.535 235.797 224.57 235.797 226.039V232.473C235.797 232.824 235.621 233 235.27 233H234.262ZM260.723 229.719C260.723 228.328 261.371 227.309 262.668 226.66C263.973 226.012 265.918 225.633 268.504 225.523V224.727C268.504 223.992 268.336 223.359 268 222.828C267.672 222.289 267.016 222.02 266.031 222.02C265.406 222.02 264.906 222.082 264.531 222.207C264.156 222.324 263.812 222.484 263.5 222.688C263.195 222.883 262.902 223.137 262.621 223.449C262.41 223.684 262.211 223.695 262.023 223.484L261.414 222.781C261.242 222.586 261.301 222.352 261.59 222.078C262.004 221.688 262.406 221.395 262.797 221.199C263.188 221.004 263.672 220.84 264.25 220.707C264.836 220.566 265.43 220.496 266.031 220.496C267.664 220.496 268.828 220.918 269.523 221.762C270.219 222.598 270.566 223.746 270.566 225.207V232.473C270.566 232.824 270.391 233 270.039 233H268.984C268.68 233 268.527 232.824 268.527 232.473V231.898H268.504C267.887 232.383 267.281 232.723 266.688 232.918C266.102 233.105 265.445 233.199 264.719 233.199C263.438 233.199 262.449 232.895 261.754 232.285C261.066 231.668 260.723 230.812 260.723 229.719ZM262.855 229.766C262.855 230.25 262.957 230.641 263.16 230.938C263.363 231.227 263.645 231.414 264.004 231.5C264.363 231.578 264.738 231.617 265.129 231.617C265.73 231.617 266.301 231.559 266.84 231.441C267.379 231.324 267.934 231.016 268.504 230.516V227.059C266.926 227.176 265.801 227.32 265.129 227.492C264.457 227.656 263.91 227.945 263.488 228.359C263.066 228.766 262.855 229.234 262.855 229.766ZM282.812 233C282.422 233 282.227 232.785 282.227 232.355V216.84C282.227 216.41 282.422 216.195 282.812 216.195H287.137C290.449 216.195 292.75 216.93 294.039 218.398C295.336 219.859 295.984 221.918 295.984 224.574C295.984 227.23 295.336 229.301 294.039 230.785C292.75 232.262 290.449 233 287.137 233H282.812ZM284.477 231.078H287.031C289.609 231.078 291.344 230.531 292.234 229.438C293.133 228.344 293.582 226.723 293.582 224.574C293.582 222.426 293.133 220.809 292.234 219.723C291.344 218.637 289.609 218.094 287.031 218.094H284.477V231.078ZM298.059 226.848C298.059 224.91 298.543 223.367 299.512 222.219C300.48 221.07 301.867 220.496 303.672 220.496C305.172 220.496 306.414 221.023 307.398 222.078C308.391 223.125 308.887 224.801 308.887 227.105C308.887 227.457 308.727 227.633 308.406 227.633H300.238C300.371 229.141 300.777 230.191 301.457 230.785C302.137 231.371 302.906 231.664 303.766 231.664C304.672 231.664 305.367 231.512 305.852 231.207C306.336 230.902 306.691 230.602 306.918 230.305C307.168 229.977 307.41 229.914 307.645 230.117L308.336 230.715C308.516 230.871 308.516 231.086 308.336 231.359C308.188 231.586 307.762 231.949 307.059 232.449C306.363 232.949 305.266 233.199 303.766 233.199C301.812 233.199 300.371 232.625 299.441 231.477C298.52 230.328 298.059 228.785 298.059 226.848ZM300.191 226.109H306.812C306.781 225.016 306.5 224.059 305.969 223.238C305.438 222.41 304.656 221.996 303.625 221.996C302.719 221.996 301.949 222.301 301.316 222.91C300.684 223.512 300.309 224.578 300.191 226.109ZM311.113 231.852C310.871 231.625 310.82 231.414 310.961 231.219L311.488 230.48C311.66 230.246 311.914 230.258 312.25 230.516C312.711 230.867 313.223 231.148 313.785 231.359C314.355 231.57 315.004 231.676 315.73 231.676C316.16 231.676 316.543 231.625 316.879 231.523C317.215 231.414 317.508 231.215 317.758 230.926C318.016 230.637 318.145 230.25 318.145 229.766C318.145 229.484 318.082 229.219 317.957 228.969C317.84 228.719 317.652 228.52 317.395 228.371C317.145 228.215 316.898 228.094 316.656 228.008C316.258 227.859 315.859 227.738 315.461 227.645C315.07 227.543 314.555 227.391 313.914 227.188C313.484 227.055 313.078 226.867 312.695 226.625C312.312 226.375 311.977 226.039 311.688 225.617C311.406 225.195 311.266 224.613 311.266 223.871C311.266 223.113 311.496 222.461 311.957 221.914C312.418 221.367 312.996 220.996 313.691 220.801C314.387 220.598 315.062 220.496 315.719 220.496C316.688 220.496 317.465 220.609 318.051 220.836C318.645 221.055 319.156 221.316 319.586 221.621C319.836 221.801 319.871 222.008 319.691 222.242L319.164 222.945C319 223.172 318.746 223.164 318.402 222.922C318.113 222.719 317.703 222.527 317.172 222.348C316.641 222.168 316.176 222.078 315.777 222.078C315.285 222.078 314.863 222.133 314.512 222.242C314.16 222.352 313.875 222.539 313.656 222.805C313.438 223.07 313.328 223.383 313.328 223.742C313.328 224.016 313.371 224.262 313.457 224.48C313.543 224.691 313.703 224.887 313.938 225.066C314.172 225.246 314.5 225.391 314.922 225.5C315.578 225.672 316.176 225.828 316.715 225.969C317.262 226.109 317.754 226.281 318.191 226.484C318.762 226.75 319.199 227.043 319.504 227.363C319.816 227.684 320.031 228.031 320.148 228.406C320.266 228.773 320.324 229.184 320.324 229.637C320.324 230.473 320.074 231.18 319.574 231.758C319.082 232.336 318.531 232.723 317.922 232.918C317.312 233.105 316.578 233.199 315.719 233.199C314.555 233.199 313.555 233.035 312.719 232.707C311.891 232.371 311.355 232.086 311.113 231.852ZM323.184 233C322.832 233 322.656 232.824 322.656 232.473V221.223C322.656 220.871 322.832 220.695 323.184 220.695H324.191C324.543 220.695 324.719 220.871 324.719 221.223V232.473C324.719 232.824 324.543 233 324.191 233H323.184ZM323.184 218.469C322.832 218.469 322.656 218.293 322.656 217.941V216.934C322.656 216.582 322.832 216.406 323.184 216.406H324.191C324.543 216.406 324.719 216.582 324.719 216.934V217.941C324.719 218.293 324.543 218.469 324.191 218.469H323.184ZM327.379 226.848C327.379 225.168 327.785 223.691 328.598 222.418C329.41 221.137 330.598 220.496 332.16 220.496C333.059 220.496 333.777 220.645 334.316 220.941C334.855 221.238 335.34 221.645 335.77 222.16H335.793L335.863 221.223C335.887 220.871 336.039 220.695 336.32 220.695H337.305C337.656 220.695 337.832 220.871 337.832 221.223V233.094C337.832 234.594 337.484 235.766 336.789 236.609C336.102 237.461 334.738 237.887 332.699 237.887C331.332 237.887 330.309 237.73 329.629 237.418C328.949 237.113 328.465 236.789 328.176 236.445C327.965 236.188 327.953 235.969 328.141 235.789L328.785 235.156C328.965 234.984 329.215 235.039 329.535 235.32C329.949 235.695 330.348 235.961 330.73 236.117C331.113 236.281 331.773 236.363 332.711 236.363C333.773 236.363 334.547 236.137 335.031 235.684C335.523 235.23 335.77 234.293 335.77 232.871V232.168C335.77 231.926 335.777 231.688 335.793 231.453H335.77C335.363 231.992 334.883 232.418 334.328 232.73C333.781 233.043 333.059 233.199 332.16 233.199C330.598 233.199 329.41 232.562 328.598 231.289C327.785 230.008 327.379 228.527 327.379 226.848ZM329.559 226.848C329.559 228.285 329.805 229.449 330.297 230.34C330.797 231.23 331.641 231.676 332.828 231.676C333.672 231.676 334.371 231.391 334.926 230.82C335.488 230.242 335.77 229.367 335.77 228.195V225.5C335.77 224.328 335.488 223.457 334.926 222.887C334.371 222.309 333.672 222.02 332.828 222.02C331.641 222.02 330.797 222.465 330.297 223.355C329.805 224.246 329.559 225.41 329.559 226.848ZM341.699 233C341.348 233 341.172 232.824 341.172 232.473V221.223C341.172 220.871 341.348 220.695 341.699 220.695H342.684C343.035 220.695 343.211 220.871 343.211 221.223V222.16H343.258C343.766 221.598 344.312 221.18 344.898 220.906C345.484 220.633 346.215 220.496 347.09 220.496C348.512 220.496 349.531 220.898 350.148 221.703C350.773 222.5 351.086 223.594 351.086 224.984V232.473C351.086 232.824 350.91 233 350.559 233H349.551C349.199 233 349.023 232.824 349.023 232.473V225.547C349.023 224.016 348.77 223.047 348.262 222.641C347.754 222.227 347.109 222.02 346.328 222.02C345.312 222.02 344.543 222.324 344.02 222.934C343.496 223.535 343.234 224.57 343.234 226.039V232.473C343.234 232.824 343.059 233 342.707 233H341.699ZM353.723 226.848C353.723 224.91 354.207 223.367 355.176 222.219C356.145 221.07 357.531 220.496 359.336 220.496C360.836 220.496 362.078 221.023 363.062 222.078C364.055 223.125 364.551 224.801 364.551 227.105C364.551 227.457 364.391 227.633 364.07 227.633H355.902C356.035 229.141 356.441 230.191 357.121 230.785C357.801 231.371 358.57 231.664 359.43 231.664C360.336 231.664 361.031 231.512 361.516 231.207C362 230.902 362.355 230.602 362.582 230.305C362.832 229.977 363.074 229.914 363.309 230.117L364 230.715C364.18 230.871 364.18 231.086 364 231.359C363.852 231.586 363.426 231.949 362.723 232.449C362.027 232.949 360.93 233.199 359.43 233.199C357.477 233.199 356.035 232.625 355.105 231.477C354.184 230.328 353.723 228.785 353.723 226.848ZM355.855 226.109H362.477C362.445 225.016 362.164 224.059 361.633 223.238C361.102 222.41 360.32 221.996 359.289 221.996C358.383 221.996 357.613 222.301 356.98 222.91C356.348 223.512 355.973 224.578 355.855 226.109ZM367.785 233C367.434 233 367.258 232.824 367.258 232.473V221.223C367.258 220.871 367.434 220.695 367.785 220.695H368.77C369.121 220.695 369.297 220.871 369.297 221.223V222.629H369.344C369.719 221.926 370.16 221.395 370.668 221.035C371.176 220.676 371.809 220.496 372.566 220.496C373.066 220.496 373.418 220.539 373.621 220.625C373.801 220.695 373.867 220.812 373.82 220.977L373.551 221.938C373.512 222.078 373.41 222.133 373.246 222.102C372.973 222.047 372.715 222.02 372.473 222.02C371.559 222.02 370.805 222.434 370.211 223.262C369.617 224.082 369.32 225.203 369.32 226.625V232.473C369.32 232.824 369.145 233 368.793 233H367.785ZM384.906 233C384.555 233 384.379 232.824 384.379 232.473V231.043C384.379 230.691 384.555 230.516 384.906 230.516H386.219C386.57 230.516 386.746 230.691 386.746 231.043V232.473C386.746 232.824 386.57 233 386.219 233H384.906ZM384.906 223.18C384.555 223.18 384.379 223.004 384.379 222.652V221.223C384.379 220.871 384.555 220.695 384.906 220.695H386.219C386.57 220.695 386.746 220.871 386.746 221.223V222.652C386.746 223.004 386.57 223.18 386.219 223.18H384.906ZM390.332 237.664C390.09 237.477 390.098 237.246 390.355 236.973C391.059 236.223 391.766 234.957 392.477 233.176C393.188 231.402 393.543 229.219 393.543 226.625C393.543 224.031 393.188 221.848 392.477 220.074C391.766 218.293 391.059 217.027 390.355 216.277C390.098 216.004 390.09 215.773 390.332 215.586L390.742 215.27C390.977 215.09 391.242 215.168 391.539 215.504C392.781 216.887 393.809 218.484 394.621 220.297C395.434 222.109 395.84 224.219 395.84 226.625C395.84 229.031 395.434 231.141 394.621 232.953C393.809 234.766 392.781 236.363 391.539 237.746C391.242 238.082 390.977 238.16 390.742 237.98L390.332 237.664Z" fill="black"/>
</svg>
