<svg width="301" height="67" viewBox="0 0 301 67" fill="none" xmlns="http://www.w3.org/2000/svg">
<path d="M6.76276 31.025C8.82589 28.2458 21.7942 33.3594 25.1071 32.949C28.1729 32.5692 32.0285 33.8854 34.9403 34.8122" stroke="white" stroke-width="3" stroke-linecap="round"/>
<path d="M2.00012 41.8673C6.74048 43.3761 11.5807 44.1351 16.1639 45.3788C19.9563 46.4078 24.2714 44.9694 28.1287 46.1971" stroke="white" stroke-width="3" stroke-linecap="round"/>
<path d="M19.489 24.0146C17.2836 24.7574 16.3105 28.2723 15.3203 30.0653C13.451 33.4503 11.5816 36.8354 9.7123 40.2204C7.96759 43.3798 6.22287 46.5392 4.47815 49.6986" stroke="white" stroke-width="3" stroke-linecap="round"/>
<path d="M30.496 27.3459C24.1385 35.6471 18.6847 44.058 13.656 53.1642" stroke="white" stroke-width="3" stroke-linecap="round"/>
<path d="M49.4598 2C50.1612 20.9354 53.5523 39.3168 53.5523 58.2714" stroke="white" stroke-width="3" stroke-linecap="round"/>
<path d="M48.4371 7.11548C58.1776 7.11548 66.8532 3.703 66.8532 17.3466C66.8532 22.8466 68.4253 26.3727 62.1924 27.3504C58.6986 27.8985 55.946 29.624 52.5296 29.624" stroke="white" stroke-width="3" stroke-linecap="round"/>
<path d="M66.8694 33.7282C72.201 32.1601 73.8085 51.8028 75.0543 55.2287C76.6722 59.678 74.0935 43.8916 75.0543 41.97C75.0543 33.7282 80.687 30.1426 90.6885 30.1426" stroke="white" stroke-width="3" stroke-linecap="round"/>
<path d="M97.9472 47.1243C92.9926 39.385 96.926 32.0099 104.896 29.1287C107.265 29.1287 115.322 32.5415 115.322 35.4731C117.971 38.1336 117.999 49.2841 112.256 51.8069C105.97 54.5688 101.1 52.0485 97.9472 47.1243Z" stroke="white" stroke-width="3" stroke-linecap="round"/>
<path d="M124.137 17.4819C126.632 17.4819 128.841 16.4587 131.299 16.4587" stroke="white" stroke-width="3" stroke-linecap="round"/>
<path d="M141.677 45.7712C144.795 42.1197 151.984 44.3915 156.168 41.0042C157.696 39.7675 164.933 37.9982 160.372 32.6769C153.236 29.8609 147.738 29.1075 142.627 34.1675C140.533 36.2401 140.597 43.7248 140.672 46.6808C140.801 51.742 144.534 55.5692 148.715 55.9889C155.306 56.6505 164.344 53.8897 167.7 46.4692" stroke="white" stroke-width="3" stroke-linecap="round"/>
<path d="M195.657 30.8949C191.316 28.852 184.753 29.3371 180.391 30.8949C176.268 32.3673 174.587 39.6872 175.07 43.0658C176.323 51.8391 189.766 53.455 198.382 46.1065" stroke="white" stroke-width="3" stroke-linecap="round"/>
<path d="M201.675 26.7476C208.163 26.7476 213.664 23.6782 220.091 23.6782" stroke="white" stroke-width="3" stroke-linecap="round"/>
<path d="M212.453 17.4727C212.453 26.9207 211.811 36.1551 211.811 45.5338C211.811 50.494 211.948 50.414 215.663 50.414C217.588 50.414 219.514 50.414 221.44 50.414" stroke="white" stroke-width="3" stroke-linecap="round"/>
<path d="M129.524 28.0867C130.15 31.4553 128.899 24.7331 129.523 28.0871C130.017 30.7403 130.511 33.3935 131.004 36.0467C132.341 43.2297 134.533 49.9546 131.98 56.8321C131.083 59.2502 130.258 62.474 127.769 63.4938C125.996 64.2205 124.108 65.195 122.178 64.2632C117.32 61.9178 117.86 61.8772 116.922 56.8327" stroke="white" stroke-width="3" stroke-linecap="round"/>
<path d="M248.762 43.2896C245.872 34.1946 251.8 27.8539 260.569 27.1059C262.946 27.7427 270.11 33.3316 269.322 36.2722C271.265 39.6531 268.295 50.8455 261.857 51.8326C254.808 52.9134 250.601 49.0763 248.762 43.2896Z" stroke="white" stroke-width="3" stroke-linecap="round"/>
<path d="M279.115 26.0411C279.23 25.1706 281.387 24.2468 282.264 23.9061C284.912 22.878 289.173 22.8462 292.017 23.2142C295.373 23.6484 297.291 27.4489 295.801 29.9553C294.147 32.7367 289.394 35.8569 285.672 36.3208C282.297 36.7414 284.54 36.0752 286.306 36.0045C288.073 35.9337 291.821 36.0796 293.686 37.2301C296.985 39.2651 299.093 42.3549 298.997 45.8492C298.908 49.0635 295.635 53.2215 291.806 53.7171C288.399 54.1579 282.245 54.464 279.961 51.5821C278.961 50.3202 277 47.8404 277 46.3236" stroke="white" stroke-width="3" stroke-linecap="round"/>
</svg>
