<svg width="305" height="67" viewBox="0 0 305 67" fill="none" xmlns="http://www.w3.org/2000/svg">
<path d="M6.76203 31.025C8.82516 28.2458 21.7934 33.3594 25.1064 32.949C28.1722 32.5692 32.0277 33.8854 34.9395 34.8122" stroke="white" stroke-width="3" stroke-linecap="round"/>
<path d="M2.00024 41.8678C6.7406 43.3766 11.5809 44.1356 16.1641 45.3793C19.9564 46.4083 24.2716 44.9699 28.1288 46.1976" stroke="white" stroke-width="3" stroke-linecap="round"/>
<path d="M19.4899 24.015C17.2844 24.7579 16.3113 28.2728 15.3212 30.0658C13.4518 33.4508 11.5825 36.8359 9.71316 40.2209C7.96844 43.3803 6.22372 46.5397 4.479 49.6991" stroke="white" stroke-width="3" stroke-linecap="round"/>
<path d="M30.4964 27.3467C24.1389 35.6479 18.6851 44.0588 13.6564 53.1649" stroke="white" stroke-width="3" stroke-linecap="round"/>
<path d="M49.459 2C50.1603 20.9354 53.5514 39.3168 53.5514 58.2714" stroke="white" stroke-width="3" stroke-linecap="round"/>
<path d="M48.4375 7.11573C58.1779 7.11573 66.8536 3.70325 66.8536 17.3469C66.8536 22.8469 68.4256 26.373 62.1927 27.3507C58.699 27.8987 55.9463 29.6243 52.53 29.6243" stroke="white" stroke-width="3" stroke-linecap="round"/>
<path d="M66.8691 33.7282C72.2007 32.1601 73.8083 51.8028 75.0541 55.2287C76.672 59.678 74.0933 43.8916 75.0541 41.97C75.0541 33.7282 80.6868 30.1426 90.6883 30.1426" stroke="white" stroke-width="3" stroke-linecap="round"/>
<path d="M97.9466 47.1246C92.992 39.3852 96.9254 32.0101 104.895 29.1289C107.265 29.1289 115.321 32.5417 115.321 35.4733C117.971 38.1338 117.998 49.2843 112.256 51.8071C105.969 54.569 101.099 52.0488 97.9466 47.1246Z" stroke="white" stroke-width="3" stroke-linecap="round"/>
<path d="M124.137 17.4821C126.632 17.4821 128.84 16.459 131.299 16.459" stroke="white" stroke-width="3" stroke-linecap="round"/>
<path d="M141.676 45.771C144.795 42.1195 151.984 44.3913 156.168 41.0039C157.695 39.7672 164.933 37.9979 160.372 32.6766C153.235 29.8607 147.738 29.1073 142.626 34.1673C140.532 36.2399 140.597 43.7245 140.672 46.6805C140.801 51.7418 144.534 55.5689 148.715 55.9887C155.305 56.6503 164.344 53.8894 167.699 46.4689" stroke="white" stroke-width="3" stroke-linecap="round"/>
<path d="M195.657 30.8953C191.316 28.8525 184.754 29.3376 180.392 30.8954C176.269 32.3678 174.588 39.6877 175.071 43.0662C176.324 51.8396 189.767 53.4555 198.383 46.107" stroke="white" stroke-width="3" stroke-linecap="round"/>
<path d="M201.676 26.7471C208.164 26.7471 213.665 23.6777 220.092 23.6777" stroke="white" stroke-width="3" stroke-linecap="round"/>
<path d="M212.452 17.4727C212.452 26.9207 211.811 36.1551 211.811 45.5338C211.811 50.494 211.947 50.414 215.662 50.414C217.588 50.414 219.514 50.414 221.44 50.414" stroke="white" stroke-width="3" stroke-linecap="round"/>
<path d="M129.523 28.0862C130.15 31.4548 128.899 24.7327 129.523 28.0866C130.016 30.7398 130.51 33.393 131.003 36.0462C132.34 43.2292 134.532 49.9541 131.98 56.8316C131.082 59.2497 130.258 62.4735 127.769 63.4933C125.995 64.22 124.107 65.1945 122.177 64.2627C117.32 61.9173 117.859 61.8768 116.921 56.8322" stroke="white" stroke-width="3" stroke-linecap="round"/>
<path d="M248.763 43.2896C245.873 34.1946 251.801 27.8539 260.57 27.1059C262.947 27.7427 270.111 33.3316 269.323 36.2722C271.266 39.6531 268.296 50.8455 261.858 51.8326C254.809 52.9134 250.602 49.0763 248.763 43.2896Z" stroke="white" stroke-width="3" stroke-linecap="round"/>
<path d="M278 31.298C275.441 31.0364 279.83 25.8207 281.14 25.4239C284.278 24.4739 287.491 23.5768 290.742 24.2146C293.799 24.8144 295.657 29.6332 295.905 31.9644C296.388 36.5034 294.665 39.1907 291.949 42.9474C290.115 45.4854 287.127 47.4358 283.979 48.7227C282.7 49.2452 274.118 52.8188 278 51.827C284.337 50.2082 297.364 52.1395 303 49.0682" stroke="white" stroke-width="3" stroke-linecap="round"/>
</svg>
