<svg width="301" height="67" viewBox="0 0 301 67" fill="none" xmlns="http://www.w3.org/2000/svg">
<path d="M6.76203 31.026C8.82516 28.2468 21.7934 33.3604 25.1064 32.95C28.1722 32.5701 32.0277 33.8864 34.9395 34.8132" stroke="#0172C0" stroke-width="3" stroke-linecap="round"/>
<path d="M2.00024 41.8678C6.7406 43.3766 11.5809 44.1356 16.1641 45.3793C19.9564 46.4083 24.2716 44.9699 28.1288 46.1976" stroke="#0172C0" stroke-width="3" stroke-linecap="round"/>
<path d="M19.4899 24.015C17.2844 24.7579 16.3113 28.2728 15.3212 30.0658C13.4518 33.4508 11.5825 36.8359 9.71316 40.2209C7.96844 43.3803 6.22372 46.5397 4.479 49.6991" stroke="#0172C0" stroke-width="3" stroke-linecap="round"/>
<path d="M30.4964 27.3467C24.1389 35.6479 18.6851 44.0588 13.6564 53.1649" stroke="#0172C0" stroke-width="3" stroke-linecap="round"/>
<path d="M49.459 2C50.1603 20.9354 53.5514 39.3168 53.5514 58.2714" stroke="#0172C0" stroke-width="3" stroke-linecap="round"/>
<path d="M48.4375 7.11573C58.1779 7.11573 66.8536 3.70325 66.8536 17.3469C66.8536 22.8469 68.4256 26.373 62.1927 27.3507C58.699 27.8987 55.9463 29.6243 52.53 29.6243" stroke="#0172C0" stroke-width="3" stroke-linecap="round"/>
<path d="M66.8691 33.7282C72.2007 32.1601 73.8083 51.8028 75.0541 55.2287C76.672 59.678 74.0933 43.8916 75.0541 41.97C75.0541 33.7282 80.6868 30.1426 90.6883 30.1426" stroke="#0172C0" stroke-width="3" stroke-linecap="round"/>
<path d="M97.9466 47.1246C92.992 39.3852 96.9254 32.0101 104.895 29.1289C107.265 29.1289 115.321 32.5417 115.321 35.4733C117.971 38.1338 117.998 49.2843 112.256 51.8071C105.969 54.569 101.099 52.0488 97.9466 47.1246Z" stroke="#0172C0" stroke-width="3" stroke-linecap="round"/>
<path d="M124.137 17.4821C126.632 17.4821 128.84 16.459 131.299 16.459" stroke="#0172C0" stroke-width="3" stroke-linecap="round"/>
<path d="M141.676 45.7719C144.795 42.1205 151.984 44.3922 156.168 41.0049C157.695 39.7682 164.933 37.9989 160.372 32.6776C153.235 29.8617 147.738 29.1083 142.626 34.1682C140.532 36.2409 140.597 43.7255 140.672 46.6815C140.801 51.7427 144.534 55.5699 148.715 55.9897C155.305 56.6512 164.344 53.8904 167.699 46.4699" stroke="#0172C0" stroke-width="3" stroke-linecap="round"/>
<path d="M195.657 30.8953C191.316 28.8525 184.754 29.3376 180.392 30.8954C176.269 32.3678 174.588 39.6877 175.071 43.0662C176.324 51.8396 189.767 53.4555 198.383 46.107" stroke="#0172C0" stroke-width="3" stroke-linecap="round"/>
<path d="M201.676 26.7471C208.164 26.7471 213.665 23.6777 220.092 23.6777" stroke="#0172C0" stroke-width="3" stroke-linecap="round"/>
<path d="M212.452 17.4727C212.452 26.9207 211.811 36.1551 211.811 45.5338C211.811 50.494 211.947 50.414 215.662 50.414C217.588 50.414 219.514 50.414 221.44 50.414" stroke="#0172C0" stroke-width="3" stroke-linecap="round"/>
<path d="M129.523 28.0862C130.15 31.4548 128.899 24.7327 129.523 28.0866C130.016 30.7398 130.51 33.393 131.003 36.0462C132.34 43.2292 134.532 49.9541 131.98 56.8316C131.082 59.2497 130.258 62.4735 127.769 63.4933C125.995 64.22 124.107 65.1945 122.177 64.2627C117.32 61.9173 117.859 61.8768 116.921 56.8322" stroke="#0172C0" stroke-width="3" stroke-linecap="round"/>
<path d="M248.763 43.2886C245.873 34.1937 251.801 27.8529 260.57 27.105C262.947 27.7418 270.111 33.3306 269.323 36.2712C271.266 39.6521 268.296 50.8445 261.858 51.8317C254.809 52.9124 250.602 49.0753 248.763 43.2886Z" stroke="#0172C0" stroke-width="3" stroke-linecap="round"/>
<path d="M292.365 26C287.312 27.1568 281.436 35.9024 278.381 40.4816C277.26 42.1618 274.748 44.2589 276.751 44.5243C284.827 45.5946 305.247 44.5243 297.127 44.5243" stroke="#0172C0" stroke-width="3" stroke-linecap="round"/>
<path d="M293 26C293 26.8879 292.811 27.6836 292.757 28.5632C292.689 29.6869 292.374 30.6449 292.345 31.6847C292.309 32.9403 292.126 34.1068 292.126 35.3645C292.126 36.3286 292.16 37.3251 292.102 38.2829C291.811 43.0802 292.236 47.7512 292.236 52.4946C292.236 56.9408 292.102 53.7036 292.102 58" stroke="#0172C0" stroke-width="3" stroke-linecap="round"/>
</svg>
