<svg width="50" height="50" viewBox="0 0 50 50" fill="none" xmlns="http://www.w3.org/2000/svg">
<rect width="50" height="50" fill="#5BACE4"/>
<path d="M16.2642 32V17.4545H22.0028C23.1061 17.4545 24.0459 17.6652 24.8224 18.0866C25.599 18.5033 26.1908 19.0833 26.598 19.8267C27.0099 20.5653 27.2159 21.4176 27.2159 22.3835C27.2159 23.3494 27.0076 24.2017 26.5909 24.9403C26.1742 25.679 25.5705 26.2543 24.7798 26.6662C23.9938 27.0781 23.0421 27.2841 21.9247 27.2841H18.267V24.8196H21.4276C22.0194 24.8196 22.5071 24.7178 22.8906 24.5142C23.2789 24.3059 23.5677 24.0194 23.7571 23.6548C23.9512 23.2855 24.0483 22.8617 24.0483 22.3835C24.0483 21.9006 23.9512 21.4792 23.7571 21.1193C23.5677 20.7547 23.2789 20.473 22.8906 20.2741C22.5024 20.0705 22.0099 19.9688 21.4134 19.9688H19.3395V32H16.2642Z" fill="white"/>
<path d="M34.2841 28.2017L31.5142 28.3722C31.4669 28.1354 31.3651 27.9223 31.2088 27.733C31.0526 27.5388 30.8466 27.3849 30.5909 27.2713C30.34 27.1529 30.0393 27.0938 29.6889 27.0938C29.2202 27.0938 28.8248 27.1932 28.5028 27.392C28.1809 27.5862 28.0199 27.8466 28.0199 28.1733C28.0199 28.4337 28.1241 28.6539 28.3324 28.8338C28.5407 29.0137 28.8982 29.1581 29.4048 29.267L31.3793 29.6648C32.4399 29.8826 33.2306 30.233 33.7514 30.7159C34.2723 31.1989 34.5327 31.8333 34.5327 32.6193C34.5327 33.3343 34.322 33.9616 33.9006 34.5014C33.4839 35.0412 32.911 35.4626 32.1818 35.7656C31.4574 36.0639 30.6217 36.2131 29.6747 36.2131C28.2306 36.2131 27.08 35.9124 26.223 35.3111C25.3707 34.705 24.8712 33.8812 24.7244 32.8395L27.7003 32.6832C27.7902 33.1236 28.008 33.4598 28.3537 33.6918C28.6993 33.919 29.142 34.0327 29.6818 34.0327C30.2121 34.0327 30.6383 33.9309 30.9602 33.7273C31.2869 33.5189 31.4527 33.2514 31.4574 32.9247C31.4527 32.6501 31.3366 32.4252 31.1094 32.25C30.8821 32.0701 30.5317 31.9328 30.0582 31.8381L28.169 31.4616C27.1037 31.2486 26.3106 30.8793 25.7898 30.3537C25.2737 29.8281 25.0156 29.1581 25.0156 28.3438C25.0156 27.643 25.205 27.0393 25.5838 26.5327C25.9673 26.026 26.5047 25.6354 27.196 25.3608C27.892 25.0862 28.7064 24.9489 29.6392 24.9489C31.017 24.9489 32.1013 25.2401 32.892 25.8224C33.6875 26.4048 34.1515 27.1979 34.2841 28.2017Z" fill="white"/>
</svg>
