<svg width="65" height="16" viewBox="0 0 65 16" fill="none" xmlns="http://www.w3.org/2000/svg">
<path d="M8.82955 4.09091C8.74905 3.28125 8.39157 2.63731 7.7571 2.15909C7.12263 1.68087 6.32481 1.44176 5.36364 1.44176C4.68655 1.44176 4.08996 1.55777 3.57386 1.78977C3.0625 2.02178 2.66004 2.34375 2.36648 2.75568C2.07765 3.16288 1.93324 3.62689 1.93324 4.14773C1.93324 4.53125 2.0161 4.86742 2.18182 5.15625C2.34754 5.44508 2.57008 5.69365 2.84943 5.90199C3.13352 6.10559 3.44602 6.28078 3.78693 6.42756C4.13258 6.57434 4.48059 6.69744 4.83097 6.79688L6.36506 7.23722C6.82907 7.36506 7.29309 7.52841 7.7571 7.72727C8.22112 7.92614 8.64489 8.17708 9.02841 8.48011C9.41667 8.77841 9.7268 9.14536 9.95881 9.58097C10.1955 10.0118 10.3139 10.5303 10.3139 11.1364C10.3139 11.9129 10.1127 12.6113 9.71023 13.2315C9.30777 13.8518 8.73011 14.3442 7.97727 14.7088C7.22443 15.0687 6.32244 15.2486 5.27131 15.2486C4.28172 15.2486 3.42235 15.0852 2.69318 14.7585C1.96402 14.4271 1.3911 13.9702 0.974432 13.3878C0.557765 12.8054 0.32339 12.1307 0.271307 11.3636H1.63494C1.68229 11.9366 1.87169 12.4219 2.20312 12.8196C2.53456 13.2173 2.96544 13.5204 3.49574 13.7287C4.02604 13.9323 4.6179 14.0341 5.27131 14.0341C5.99574 14.0341 6.63968 13.9134 7.20312 13.6719C7.77131 13.4257 8.21638 13.0848 8.53835 12.6491C8.86506 12.2088 9.02841 11.6974 9.02841 11.1151C9.02841 10.6226 8.90057 10.2107 8.64489 9.87926C8.3892 9.54309 8.03172 9.26136 7.57244 9.03409C7.1179 8.80682 6.58996 8.60559 5.98864 8.4304L4.24858 7.91903C3.10748 7.57812 2.22206 7.10701 1.59233 6.50568C0.962595 5.90436 0.647727 5.13731 0.647727 4.20455C0.647727 3.4233 0.856061 2.73674 1.27273 2.14489C1.69413 1.5483 2.26231 1.08428 2.97727 0.75284C3.69697 0.416666 4.50426 0.248579 5.39915 0.248579C6.3035 0.248579 7.10369 0.414299 7.79972 0.745739C8.49574 1.07718 9.04735 1.53409 9.45455 2.11648C9.86648 2.69413 10.0866 3.35227 10.1151 4.09091H8.82955ZM12.6293 1.64773V0.454545H23.1761V1.64773H18.5668V15H17.2386V1.64773H12.6293ZM24.4883 15H23.0962L28.3874 0.454545H29.8079L35.0991 15H33.707L29.1474 2.1804H29.0479L24.4883 15ZM25.4897 9.42472H32.7056V10.6179H25.4897V9.42472ZM37.592 15V0.454545H42.2866C43.3188 0.454545 44.1805 0.641572 44.8718 1.01562C45.5678 1.38494 46.091 1.89867 46.4414 2.55682C46.7965 3.21023 46.9741 3.9607 46.9741 4.80824C46.9741 5.65578 46.7965 6.40388 46.4414 7.05256C46.091 7.70123 45.5702 8.20786 44.8789 8.57244C44.1876 8.93703 43.3306 9.11932 42.3079 9.11932H38.3093V7.90483H42.2724C43.0299 7.90483 43.6597 7.77936 44.1616 7.52841C44.6682 7.27746 45.0446 6.91998 45.2908 6.45597C45.5418 5.99195 45.6673 5.44271 45.6673 4.80824C45.6673 4.17377 45.5418 3.61979 45.2908 3.14631C45.0399 2.66809 44.6611 2.29877 44.1545 2.03835C43.6526 1.77793 43.0181 1.64773 42.2511 1.64773H38.9201V15H37.592ZM44.0053 8.4375L47.5849 15H46.0508L42.5067 8.4375H44.0053ZM49.3285 1.64773V0.454545H59.8754V1.64773H55.266V15H53.9379V1.64773H49.3285ZM64.3782 0.454545L64.2859 10.831H63.0359L62.9435 0.454545H64.3782ZM63.6609 15.1065C63.3815 15.1065 63.14 15.0071 62.9364 14.8082C62.7376 14.6046 62.6381 14.3632 62.6381 14.0838C62.6381 13.7997 62.7376 13.5582 62.9364 13.3594C63.14 13.1605 63.3815 13.0611 63.6609 13.0611C63.9402 13.0611 64.1793 13.1605 64.3782 13.3594C64.5818 13.5582 64.6836 13.7997 64.6836 14.0838C64.6836 14.2685 64.6362 14.4389 64.5415 14.5952C64.4516 14.7514 64.3285 14.8769 64.1722 14.9716C64.0207 15.0616 63.8503 15.1065 63.6609 15.1065Z" fill="white"/>
</svg>
