<svg width="602" height="121" viewBox="0 0 602 121" fill="none" xmlns="http://www.w3.org/2000/svg">
<path d="M0 30.7461L72.4226 30.7461" stroke="white" stroke-width="20"/>
<path d="M36.6367 34.1543L36.2189 99.3347" stroke="white" stroke-width="20"/>
<path d="M86.3398 7.74219C88.4398 19.7108 86.9789 34.197 86.9789 46.4891C86.9789 55.7291 86.9789 64.969 86.9789 74.2089C86.9789 83.095 87.6179 91.7153 87.6179 100.613" stroke="white" stroke-width="20"/>
<path d="M86.3398 67.7299C86.5907 65.3103 90.0181 62.5128 91.4608 60.87C93.4848 58.5655 95.9365 57.2217 98.8497 56.5973C102.217 55.8756 105.269 55.0293 108.726 55.0293C116.408 55.0293 119.779 61.0393 123.065 67.7299C128.14 78.0646 127.161 88.624 127.161 100.187" stroke="white" stroke-width="20"/>
<path d="M161.941 57.6114C153.818 57.6114 150.541 62.2946 149.363 69.8304C148.382 76.1121 148.272 84.0869 150.281 90.1156C152.942 98.0962 159.885 100.098 167.372 97.1036C179.826 92.1218 178.473 75.8425 178.473 64.839C178.473 62.2181 177.429 57.9554 174.16 57.6114C170.149 57.1891 167.386 55.4551 163.379 55.4551" stroke="white" stroke-width="20"/>
<path d="M178.926 64.4004C179.389 71.3533 183.104 78.497 186.473 84.4859C187.753 86.7621 189.561 89.1976 191.464 90.9947C192.662 92.1257 194.757 92.4684 195.457 93.8698" stroke="white" stroke-width="20"/>
<path d="M206.908 47.9297C207.12 54.273 210.165 60.5708 211.979 66.6176C213.324 71.0988 214.686 76.2653 215.454 80.8731C216.154 85.0779 215.857 89.3403 216.651 93.6113C217.22 96.6681 217.69 100.161 217.69 103.275" stroke="white" stroke-width="20"/>
<path d="M214.073 76.542C214.767 71.3339 212.319 59.5822 219.946 58.5724C226.098 57.7578 239.284 56.2583 243.059 62.4107C244.728 65.1301 248.111 66.6326 249.332 69.6809C250.914 73.63 252.299 77.6907 253.318 81.767C255.007 88.5204 255.102 95.5636 254.196 102.365" stroke="white" stroke-width="20"/>
<path d="M277.256 1C277.218 5.68648 278.073 10.1389 278.652 14.6082C279.691 22.6287 280.336 30.8432 281.22 38.9347C282.478 50.4569 284.164 62.5379 284.083 74.3982C284.015 84.3664 286.474 93.4197 285.857 103.527" stroke="white" stroke-width="20"/>
<path d="M285.482 59.1584C287.913 58.6722 292.436 57.5574 294.58 56.4088C298.493 54.3121 303.455 53.9205 307.682 52.4712C310.19 51.6113 313.509 50.1831 316.169 49.9932C318.688 49.8133 320.192 48.1602 322.754 48.1602" stroke="white" stroke-width="20"/>
<path d="M284.26 73.2129C281.139 77.1137 304.583 88.5389 306.867 89.7102C310.216 91.4273 313.948 92.7988 317.187 94.5983C318.791 95.4897 320.902 97.0423 322.754 97.0423" stroke="white" stroke-width="20"/>
<path d="M583.275 26.3652C583.672 38.2756 585.56 50.5434 587.628 62.2636C588.587 67.7005 590.463 73.9963 590.463 79.5539" stroke="white" stroke-width="20"/>
<path d="M590.463 96.8047C590.463 102.614 591.182 108.411 591.182 114.055" stroke="white" stroke-width="20"/>
<path d="M423.592 54.4982C422.391 68.8365 419.137 93.2334 434.372 102.11C441.836 106.459 450.545 110.297 459.367 110.297C468.964 110.297 470.308 98.9023 470.308 91.4986C470.308 82.8298 470.829 76.4479 466.475 68.6466C464.155 64.4911 462.103 58.0575 457.291 55.9289C449.246 52.37 441.732 51.6367 432.935 51.6367" stroke="white" stroke-width="20"/>
<path d="M538.846 58.0762C538.846 68.4331 544.628 78.9718 550.555 88.1782C553.299 92.4422 554.554 95.8947 559.748 98.5315" stroke="white" stroke-width="20"/>
<path d="M497.749 57.4023C497.749 58.7429 497.749 60.0835 497.749 61.4241C497.749 64.5402 497.061 67.4529 496.706 70.5391C496.139 75.4805 496.455 80.513 496.455 85.4711C496.455 89.3877 498.692 93.6328 500.518 97.2302C501.538 99.2403 503.372 101.417 505.767 102.63C507.593 103.554 510.106 103.84 512.293 104.369C514.081 104.802 516.471 104.494 518.315 104.494C520.988 104.494 522.644 103.603 525.039 102.852C525.932 102.572 526.07 101.82 526.944 101.544C527.909 101.24 528.623 100.737 529.299 100.097C531.347 98.1596 531.969 96.1667 533.308 94.0016C535.023 91.229 535.803 88.7713 536.724 85.819C537.147 84.4615 536.996 83.1062 537.299 81.7555C537.62 80.3287 538.046 78.9051 538.18 77.4554C538.767 71.0988 538.845 64.7918 538.845 58.4043" stroke="white" stroke-width="20"/>
<path d="M403.739 29.6514C401.439 34.5451 400.567 40.3082 398.541 45.4168C396.677 50.1158 394.65 54.7877 392.373 59.3011C390.156 63.694 387.463 67.7878 385.167 72.1402" stroke="white" stroke-width="20"/>
<path d="M382.277 63.2539C382.019 70.2195 383.703 76.5389 385.235 83.2026C386.548 88.9155 386.946 95.0531 388.216 100.87C388.784 103.471 388.094 107.823 389.649 109.919C390.879 111.577 390.393 114.606 390.237 116.537" stroke="white" stroke-width="20"/>
<path d="M360.295 25.6836C360.429 29.1337 362.496 32.237 364.087 35.1629C365.829 38.366 367.431 41.5587 368.949 44.8754C370.472 48.2038 372.42 51.3213 373.83 54.7071C374.688 56.768 375.557 58.9723 376.713 60.8789C377.126 61.5594 377.351 62.3603 377.667 63.0875C378.051 63.9725 378.755 64.7614 378.97 65.7064C379.214 66.7774 380.205 67.6116 380.647 68.6055C381.344 70.1711 382.071 72.0063 383.178 73.3082" stroke="white" stroke-width="20"/>
</svg>
