<svg width="94" height="93" viewBox="0 0 94 93" fill="none" xmlns="http://www.w3.org/2000/svg">
<path d="M17.99 36.03H51.94V43.24H17.99V36.03ZM17.99 47.65H51.94V54.93H17.99V47.65ZM17.99 24.41H51.94V31.55H17.99V24.41ZM12.88 19.72V59.69H57.26V19.72H12.88ZM39.48 56.26V73.69C39.48 79.5 41.23 81.11 47.88 81.11C49.28 81.11 57.75 81.11 59.22 81.11C65.17 81.11 66.71 78.52 67.34 68.3C65.87 67.95 63.56 67.11 62.44 66.13C62.16 74.88 61.67 76.07 58.8 76.07C56.91 76.07 49.84 76.07 48.37 76.07C45.36 76.07 44.8 75.72 44.8 73.69V56.26H39.48ZM22.61 57.73C21.42 67.95 18.13 73.97 2.73 77.05C3.78 78.17 5.25 80.34 5.74 81.67C22.61 77.82 26.81 70.19 28.28 57.73H22.61Z" fill="black"/>
<path d="M83.8935 68.4723C82.5346 68.4723 81.3662 67.9917 80.3885 67.0305C79.4107 66.0528 78.9219 64.8762 78.9219 63.5007C78.9219 62.1418 79.4107 60.9818 80.3885 60.0206C81.3662 59.0428 82.5346 58.554 83.8935 58.554C85.2524 58.554 86.4207 59.0428 87.3984 60.0206C88.3762 60.9818 88.8651 62.1418 88.8651 63.5007C88.8651 64.4122 88.6331 65.2491 88.169 66.0114C87.7216 66.7571 87.125 67.3537 86.3793 67.8011C85.6335 68.2486 84.8049 68.4723 83.8935 68.4723ZM83.8935 40.6811C82.5346 40.6811 81.3662 40.1922 80.3885 39.2145C79.4107 38.2367 78.9219 37.0684 78.9219 35.7095C78.9219 34.3506 79.4107 33.1906 80.3885 32.2294C81.3662 31.2517 82.5346 30.7628 83.8935 30.7628C85.2524 30.7628 86.4207 31.2517 87.3984 32.2294C88.3762 33.1906 88.8651 34.3506 88.8651 35.7095C88.8651 36.621 88.6331 37.4579 88.169 38.2202C87.7216 38.9659 87.125 39.5625 86.3793 40.0099C85.6335 40.4574 84.8049 40.6811 83.8935 40.6811Z" fill="black"/>
</svg>
