<svg width="1920" height="1080" viewBox="0 0 1920 1080" fill="none" xmlns="http://www.w3.org/2000/svg">
<rect width="1920" height="1080" fill="#0172C0"/>
<path d="M170.547 509.498C177.849 457.65 193.025 408.357 195.49 355.781C197.336 316.387 196.65 276.869 196.65 237.447C196.65 221.088 191.523 193.37 196.94 177.12C201.397 163.749 206.319 203.707 210.571 217.145C223.589 258.28 236.879 299.53 261.037 335.768C285.936 373.116 377.175 466.312 403.154 381.884C420.717 324.804 410.657 252.579 400.253 195.682C399.028 188.982 390.506 150.283 389.812 181.18C389.091 213.273 390.509 244.911 395.903 276.601C403.965 323.97 417.09 415.886 484.943 389.714C541.098 368.055 559.143 322.912 572.533 269.351" stroke="white" stroke-opacity="0.6" stroke-linecap="round"/>
<path d="M546.43 264.129C575.998 333.614 623.397 375.289 698.988 373.762C784.855 372.027 852.988 322.988 855.606 233.096C856.765 193.289 851.274 151.721 836.754 114.472C832.1 102.535 825.056 89.0449 817.901 106.931C787.767 182.268 802.758 281.78 817.901 358.1C834.008 439.277 878.197 558.328 819.062 630.732C738.382 729.512 591.882 772.762 486.683 687.288C405.046 620.958 379.951 511.153 379.951 410.886C379.951 409.53 381.403 341.282 389.812 358.1" stroke="white" stroke-opacity="0.6" stroke-linecap="round"/>
<path d="M233.194 634.792C233.194 683.256 228.45 736.849 245.086 783.289C264.185 836.609 310.944 847.655 350.658 807.942C399.119 759.48 435.637 680.515 435.637 611.589C435.637 602.563 433.44 580.468 418.525 589.547C401.193 600.097 396.396 631.233 392.712 648.424C377.917 717.47 367.913 799.366 423.456 852.897C470.55 898.285 543.481 920.728 591.095 864.498C636.675 810.671 624.563 725.405 628.8 659.735C629.665 646.317 636.22 629.572 619.518 629.572" stroke="white" stroke-opacity="0.6" stroke-linecap="round"/>
<path d="M598.636 692.219C587.697 771.527 636.208 826.3 716.099 834.916C835.321 847.773 935.004 781.801 940.295 653.935C944.689 547.755 865.121 467.088 755.544 473.244C718.692 475.315 682.985 504.583 676.945 540.822" stroke="white" stroke-opacity="0.6" stroke-linecap="round"/>
<path d="M911.871 420.748C969.5 514.651 1040.32 609.341 1078.06 713.972C1090.76 749.179 1107.93 794.242 1107.93 832.595C1107.93 857.061 1091.71 786.305 1086.47 762.407C1068.44 680.189 1053.47 595.903 1070.23 512.108C1085.63 435.112 1126.32 381.5 1204.22 423.358C1242.3 443.815 1280.98 470.731 1312.7 500.217C1317.12 504.329 1329.52 524.306 1329.52 509.498" stroke="white" stroke-opacity="0.6" stroke-linecap="round"/>
<path d="M1329.52 363.32C1337.92 501.084 1388.92 631.419 1426.39 762.986C1436.46 798.354 1444.44 851.336 1469.32 880.74C1480.55 894.015 1480.76 821.167 1480.92 817.512" stroke="white" stroke-opacity="0.6" stroke-linecap="round"/>
<path d="M1453.85 429C1393.84 476.941 1346.38 502.488 1365.16 586.912C1377.82 643.799 1468.58 638.188 1511.58 639.132C1587.68 640.802 1663.89 639.549 1740 639.549" stroke="white" stroke-opacity="0.6" stroke-linecap="round"/>
<path d="M1809.81 467.733C1792.69 467.733 1776.22 443.262 1757.61 437.57C1724.59 427.469 1674 425.138 1641.6 436.41C1587.13 455.356 1576.71 556.51 1571.99 603.469C1563.89 683.921 1614.48 734.573 1629.99 809.972C1642.14 869.009 1653.5 952.944 1593.45 988.633C1537.5 1021.89 1475.62 1018.52 1415.37 1000.23C1282.25 959.839 1188.11 767.586 1214.67 634.792" stroke="white" stroke-opacity="0.6" stroke-linecap="round"/>
<path d="M135.401 987L141.366 950.636H144.918L138.952 987H135.401ZM118.852 976.915L119.42 973.364H146.551L145.983 976.915H118.852ZM122.616 987L128.582 950.636H132.134L126.168 987H122.616ZM120.983 964.273L121.551 960.722H148.682L148.114 964.273H120.983ZM153.543 981.65V985.1H194.493V981.65H153.543ZM157.093 950.2V953.6H190.643V950.2H157.093ZM157.193 969.3V972.7H190.593V969.3H157.193ZM164.143 953.35V969.65H168.293V953.35H164.143ZM179.543 953.35V969.65H183.643V953.35H179.543ZM201.039 981.9V985.35H241.989V981.9H201.039ZM219.339 972.2V983.35H223.489V972.2H219.339ZM205.989 949.05V952.4H232.839V959.4H206.139V971.8H210.239V962.75H236.939V949.05H205.989ZM206.139 970.05V973.45H237.989V970.05H206.139ZM267.185 957.35V960.75H275.435V957.35H267.185ZM273.935 946.65V972.95H277.835V946.65H273.935ZM257.885 951.65V955.35C257.885 960.75 254.485 966.55 248.685 969.05L250.835 972.25C257.485 969.3 261.135 962.35 261.135 955.35V951.65H257.885ZM258.585 951.65V955.3C258.585 961.85 262.035 968.45 268.585 971.2L270.685 968C265.085 965.65 261.835 960.3 261.835 955.3V951.65H258.585ZM249.535 949.35V952.75H269.635V949.35H249.535ZM282.635 945.7V973.3H286.585V945.7H282.635ZM256.285 975.3V978.7H282.485V990.9H286.585V975.3H256.285ZM301.281 970.05V973.4H332.331V970.05H301.281ZM296.031 981.65V985.1H336.981V981.65H296.031ZM301.281 949.55V971.1H305.481V952.95H331.831V949.55H301.281ZM304.131 959.65V962.95H330.881V959.65H304.131Z" fill="white"/>
<path d="M556.256 597V487.909H601.32C609.488 487.909 616.537 489.507 622.467 492.703C628.433 495.864 633.032 500.285 636.263 505.967C639.495 511.613 641.111 518.183 641.111 525.675C641.111 533.204 639.46 539.791 636.157 545.438C632.89 551.048 628.22 555.398 622.148 558.488C616.075 561.577 608.866 563.122 600.521 563.122H572.716V542.348H595.621C599.598 542.348 602.918 541.656 605.582 540.271C608.281 538.886 610.322 536.95 611.707 534.464C613.092 531.943 613.785 529.013 613.785 525.675C613.785 522.302 613.092 519.39 611.707 516.94C610.322 514.454 608.281 512.536 605.582 511.187C602.883 509.837 599.563 509.163 595.621 509.163H582.624V597H556.256ZM661.608 597V487.909H706.672C714.839 487.909 721.888 489.383 727.819 492.33C733.785 495.242 738.384 499.433 741.615 504.901C744.847 510.335 746.462 516.78 746.462 524.237C746.462 531.801 744.811 538.229 741.509 543.52C738.206 548.776 733.518 552.788 727.446 555.558C721.374 558.293 714.183 559.66 705.873 559.66H677.375V538.886H700.972C704.95 538.886 708.27 538.371 710.933 537.341C713.632 536.276 715.674 534.678 717.059 532.547C718.444 530.381 719.136 527.611 719.136 524.237C719.136 520.864 718.444 518.076 717.059 515.874C715.674 513.637 713.632 511.968 710.933 510.867C708.234 509.731 704.914 509.163 700.972 509.163H687.975V597H661.608ZM723.025 547.142L750.191 597H721.427L694.793 547.142H723.025ZM871.39 542.455C871.39 554.457 869.081 564.631 864.465 572.977C859.848 581.322 853.598 587.661 845.715 591.993C837.867 596.325 829.06 598.491 819.294 598.491C809.493 598.491 800.669 596.308 792.821 591.94C784.973 587.572 778.74 581.233 774.124 572.923C769.543 564.578 767.252 554.422 767.252 542.455C767.252 530.452 769.543 520.278 774.124 511.933C778.74 503.587 784.973 497.249 792.821 492.916C800.669 488.584 809.493 486.418 819.294 486.418C829.06 486.418 837.867 488.584 845.715 492.916C853.598 497.249 859.848 503.587 864.465 511.933C869.081 520.278 871.39 530.452 871.39 542.455ZM844.436 542.455C844.436 535.352 843.424 529.351 841.4 524.45C839.412 519.55 836.535 515.839 832.771 513.317C829.042 510.796 824.55 509.536 819.294 509.536C814.074 509.536 809.582 510.796 805.818 513.317C802.054 515.839 799.159 519.55 797.135 524.45C795.147 529.351 794.152 535.352 794.152 542.455C794.152 549.557 795.147 555.558 797.135 560.459C799.159 565.359 802.054 569.07 805.818 571.592C809.582 574.113 814.074 575.374 819.294 575.374C824.55 575.374 829.042 574.113 832.771 571.592C836.535 569.07 839.412 565.359 841.4 560.459C843.424 555.558 844.436 549.557 844.436 542.455ZM938.602 487.909H964.596V563.335C964.561 570.402 962.874 576.581 959.536 581.872C956.198 587.128 951.581 591.212 945.686 594.124C939.827 597.036 933.044 598.491 925.338 598.491C918.52 598.491 912.324 597.302 906.748 594.923C901.208 592.543 896.787 588.85 893.485 583.843C890.218 578.836 888.602 572.426 888.637 564.614H914.898C915.005 567.419 915.537 569.816 916.496 571.805C917.49 573.758 918.858 575.232 920.598 576.226C922.338 577.22 924.415 577.717 926.83 577.717C929.351 577.717 931.482 577.185 933.222 576.119C934.962 575.018 936.276 573.403 937.164 571.272C938.087 569.141 938.566 566.496 938.602 563.335V487.909ZM988.649 597V487.909H1064.71V509.322H1015.02V531.695H1060.83V553.161H1015.02V575.587H1064.71V597H988.649ZM1187.75 527.433H1161.12C1160.76 524.699 1160.03 522.231 1158.93 520.029C1157.83 517.827 1156.38 515.945 1154.57 514.383C1152.75 512.82 1150.61 511.631 1148.12 510.814C1145.67 509.962 1142.95 509.536 1139.97 509.536C1134.68 509.536 1130.12 510.832 1126.28 513.424C1122.48 516.016 1119.55 519.763 1117.49 524.663C1115.47 529.564 1114.46 535.494 1114.46 542.455C1114.46 549.699 1115.48 555.771 1117.54 560.672C1119.64 565.537 1122.57 569.212 1126.33 571.698C1130.13 574.148 1134.63 575.374 1139.81 575.374C1142.72 575.374 1145.37 575.001 1147.75 574.255C1150.16 573.509 1152.27 572.426 1154.09 571.006C1155.93 569.55 1157.44 567.792 1158.61 565.732C1159.82 563.637 1160.66 561.276 1161.12 558.648L1187.75 558.808C1187.29 563.637 1185.89 568.396 1183.54 573.083C1181.23 577.771 1178.06 582.05 1174.01 585.92C1169.96 589.756 1165.02 592.81 1159.2 595.082C1153.41 597.355 1146.77 598.491 1139.28 598.491C1129.41 598.491 1120.56 596.325 1112.75 591.993C1104.97 587.625 1098.83 581.268 1094.32 572.923C1089.81 564.578 1087.56 554.422 1087.56 542.455C1087.56 530.452 1089.85 520.278 1094.43 511.933C1099.01 503.587 1105.2 497.249 1113.02 492.916C1120.83 488.584 1129.58 486.418 1139.28 486.418C1145.88 486.418 1151.99 487.341 1157.6 489.188C1163.21 490.999 1168.15 493.662 1172.41 497.178C1176.67 500.658 1180.13 504.937 1182.8 510.015C1185.46 515.093 1187.11 520.899 1187.75 527.433ZM1206.77 509.322V487.909H1298.97V509.322H1265.9V597H1239.9V509.322H1206.77Z" fill="white"/>
<path d="M1342.27 601.349C1338.38 601.349 1335.05 599.976 1332.25 597.23C1329.46 594.437 1328.06 591.075 1328.06 587.145C1328.06 583.262 1329.46 579.948 1332.25 577.202C1335.05 574.408 1338.38 573.011 1342.27 573.011C1346.15 573.011 1349.49 574.408 1352.28 577.202C1355.07 579.948 1356.47 583.262 1356.47 587.145C1356.47 589.749 1355.81 592.14 1354.48 594.318C1353.2 596.449 1351.5 598.153 1349.37 599.432C1347.24 600.71 1344.87 601.349 1342.27 601.349ZM1342.27 521.946C1338.38 521.946 1335.05 520.549 1332.25 517.756C1329.46 514.962 1328.06 511.624 1328.06 507.741C1328.06 503.859 1329.46 500.545 1332.25 497.798C1335.05 495.005 1338.38 493.608 1342.27 493.608C1346.15 493.608 1349.49 495.005 1352.28 497.798C1355.07 500.545 1356.47 503.859 1356.47 507.741C1356.47 510.346 1355.81 512.737 1354.48 514.915C1353.2 517.045 1351.5 518.75 1349.37 520.028C1347.24 521.307 1344.87 521.946 1342.27 521.946Z" fill="#FCF3BC"/>
<path d="M953.2 464.012C950.288 464.012 947.785 462.982 945.69 460.923C943.594 458.827 942.547 456.306 942.547 453.359C942.547 450.447 943.594 447.961 945.69 445.901C947.785 443.806 950.288 442.759 953.2 442.759C956.112 442.759 958.616 443.806 960.711 445.901C962.806 447.961 963.854 450.447 963.854 453.359C963.854 455.312 963.357 457.105 962.362 458.739C961.403 460.337 960.125 461.615 958.527 462.574C956.929 463.533 955.153 464.012 953.2 464.012Z" fill="white"/>
</svg>
